<svg width="530" height="362" viewBox="0 0 530 362" fill="none" xmlns="http://www.w3.org/2000/svg">
<g clip-path="url(#clip0)">
<path d="M335.225 101.292H269.484V87.0718C269.484 86.1697 269.126 85.3046 268.488 84.6667C267.85 84.0288 266.985 83.6705 266.083 83.6705H246.778V68.5233C246.778 67.9554 246.553 67.4108 246.151 67.0093C245.75 66.6077 245.205 66.3821 244.637 66.3821H219.77C219.202 66.3821 218.658 66.6077 218.256 67.0093C217.855 67.4108 217.629 67.9554 217.629 68.5233V83.6756H194.933C194.031 83.6756 193.166 84.0339 192.528 84.6718C191.891 85.3097 191.532 86.1748 191.532 87.0769V101.297H128.844C128.662 101.298 128.487 101.372 128.358 101.501C128.23 101.631 128.158 101.806 128.158 101.988V290.757C128.158 290.939 128.23 291.114 128.358 291.244C128.487 291.373 128.662 291.447 128.844 291.448H170.506C170.69 291.448 170.866 291.375 170.995 291.246C171.125 291.116 171.198 290.94 171.198 290.757V265.359C171.199 265.176 171.273 265.001 171.402 264.872C171.531 264.743 171.706 264.669 171.889 264.668H189.489C189.672 264.669 189.847 264.743 189.976 264.872C190.106 265.001 190.179 265.176 190.18 265.359V290.757C190.18 290.939 190.252 291.114 190.381 291.244C190.509 291.373 190.684 291.447 190.866 291.448H273.193C273.376 291.447 273.551 291.374 273.68 291.244C273.809 291.115 273.883 290.94 273.884 290.757V265.359C273.884 265.177 273.956 265.002 274.085 264.872C274.213 264.743 274.388 264.669 274.57 264.668H292.17C292.353 264.668 292.529 264.741 292.659 264.87C292.788 265 292.861 265.176 292.861 265.359V290.757C292.862 290.94 292.936 291.115 293.065 291.244C293.194 291.374 293.37 291.447 293.553 291.448H335.215C335.398 291.447 335.573 291.374 335.702 291.244C335.832 291.115 335.905 290.94 335.906 290.757V101.983C335.905 101.802 335.833 101.628 335.706 101.499C335.579 101.37 335.406 101.296 335.225 101.292ZM163.74 255.847C163.74 256.029 163.668 256.204 163.539 256.332C163.411 256.461 163.236 256.533 163.054 256.533H137.321C137.23 256.534 137.141 256.517 137.057 256.483C136.973 256.448 136.897 256.398 136.832 256.334C136.768 256.27 136.717 256.194 136.682 256.111C136.647 256.027 136.63 255.938 136.63 255.847V247.082C136.63 246.992 136.647 246.902 136.682 246.818C136.717 246.734 136.768 246.658 136.832 246.593C136.896 246.529 136.972 246.478 137.056 246.444C137.14 246.409 137.23 246.391 137.321 246.391H163.069C163.252 246.392 163.426 246.466 163.555 246.595C163.684 246.725 163.756 246.9 163.756 247.082L163.74 255.847ZM163.74 233.134C163.741 233.225 163.724 233.314 163.69 233.398C163.655 233.482 163.605 233.558 163.541 233.623C163.477 233.687 163.401 233.738 163.318 233.773C163.234 233.808 163.145 233.826 163.054 233.826H137.321C137.23 233.826 137.14 233.809 137.056 233.774C136.971 233.74 136.895 233.689 136.831 233.624C136.766 233.56 136.715 233.484 136.681 233.399C136.646 233.315 136.629 233.225 136.63 233.134V224.349C136.629 224.258 136.646 224.168 136.681 224.083C136.715 223.999 136.766 223.923 136.831 223.858C136.895 223.794 136.971 223.743 137.056 223.709C137.14 223.674 137.23 223.657 137.321 223.657H163.069C163.16 223.657 163.25 223.675 163.333 223.71C163.417 223.745 163.493 223.796 163.556 223.86C163.62 223.925 163.671 224.001 163.705 224.085C163.739 224.169 163.756 224.258 163.756 224.349L163.74 233.134ZM163.74 210.426C163.74 210.609 163.668 210.784 163.54 210.913C163.411 211.043 163.236 211.116 163.054 211.118H137.321C137.23 211.118 137.14 211.1 137.056 211.065C136.972 211.03 136.896 210.979 136.832 210.915C136.768 210.851 136.717 210.775 136.682 210.691C136.647 210.607 136.63 210.517 136.63 210.426V201.636C136.63 201.545 136.647 201.455 136.682 201.371C136.717 201.287 136.768 201.211 136.832 201.147C136.896 201.083 136.972 201.032 137.056 200.997C137.14 200.962 137.23 200.944 137.321 200.944H163.069C163.252 200.946 163.426 201.019 163.555 201.149C163.684 201.278 163.756 201.453 163.756 201.636L163.74 210.426ZM163.74 187.713C163.741 187.804 163.724 187.893 163.69 187.977C163.655 188.061 163.605 188.137 163.541 188.202C163.477 188.266 163.401 188.317 163.318 188.352C163.234 188.387 163.145 188.405 163.054 188.405H137.321C137.23 188.405 137.14 188.388 137.056 188.353C136.971 188.319 136.895 188.268 136.831 188.204C136.766 188.139 136.715 188.063 136.681 187.978C136.646 187.894 136.629 187.804 136.63 187.713V178.954C136.629 178.863 136.646 178.772 136.681 178.688C136.715 178.604 136.766 178.527 136.831 178.463C136.895 178.399 136.971 178.348 137.056 178.313C137.14 178.279 137.23 178.261 137.321 178.262H163.069C163.16 178.262 163.25 178.28 163.333 178.315C163.417 178.35 163.493 178.401 163.556 178.465C163.62 178.529 163.671 178.605 163.705 178.689C163.739 178.773 163.756 178.863 163.756 178.954L163.74 187.713ZM163.74 165.005C163.74 165.188 163.668 165.363 163.54 165.492C163.411 165.622 163.236 165.695 163.054 165.697H137.321C137.23 165.697 137.14 165.679 137.056 165.644C136.972 165.609 136.896 165.558 136.832 165.494C136.768 165.43 136.717 165.354 136.682 165.27C136.647 165.186 136.63 165.096 136.63 165.005V156.215C136.63 156.124 136.647 156.035 136.682 155.951C136.717 155.867 136.768 155.792 136.832 155.728C136.897 155.664 136.973 155.613 137.057 155.579C137.141 155.545 137.23 155.528 137.321 155.529H163.069C163.251 155.529 163.426 155.601 163.555 155.73C163.683 155.858 163.756 156.033 163.756 156.215L163.74 165.005ZM163.74 142.297C163.74 142.479 163.668 142.654 163.539 142.783C163.411 142.911 163.236 142.984 163.054 142.984H137.321C137.23 142.984 137.141 142.967 137.057 142.933C136.973 142.899 136.897 142.848 136.832 142.784C136.768 142.721 136.717 142.645 136.682 142.561C136.647 142.477 136.63 142.388 136.63 142.297V133.507C136.63 133.416 136.647 133.326 136.682 133.242C136.717 133.158 136.768 133.082 136.832 133.018C136.896 132.954 136.972 132.903 137.056 132.868C137.14 132.833 137.23 132.815 137.321 132.815H163.069C163.252 132.817 163.426 132.89 163.555 133.02C163.684 133.149 163.756 133.324 163.756 133.507L163.74 142.297ZM163.74 119.584C163.741 119.675 163.724 119.764 163.69 119.848C163.655 119.932 163.605 120.009 163.541 120.073C163.477 120.137 163.401 120.188 163.318 120.223C163.234 120.258 163.145 120.276 163.054 120.276H137.321C137.23 120.276 137.14 120.259 137.056 120.224C136.971 120.19 136.895 120.139 136.831 120.075C136.766 120.01 136.715 119.934 136.681 119.85C136.646 119.765 136.629 119.675 136.63 119.584V110.825C136.629 110.734 136.646 110.643 136.681 110.559C136.715 110.475 136.766 110.399 136.831 110.334C136.895 110.27 136.971 110.219 137.056 110.184C137.14 110.15 137.23 110.132 137.321 110.133H163.069C163.16 110.133 163.25 110.151 163.333 110.186C163.417 110.221 163.493 110.272 163.556 110.336C163.62 110.4 163.671 110.477 163.705 110.56C163.739 110.644 163.756 110.734 163.756 110.825L163.74 119.584ZM224.749 255.842C224.749 255.932 224.731 256.022 224.696 256.106C224.661 256.189 224.61 256.265 224.546 256.329C224.481 256.393 224.405 256.443 224.321 256.478C224.237 256.512 224.148 256.529 224.057 256.528H198.324C198.142 256.528 197.967 256.456 197.837 256.328C197.707 256.199 197.634 256.024 197.633 255.842V247.082C197.634 246.899 197.707 246.724 197.837 246.595C197.966 246.466 198.141 246.392 198.324 246.391H224.057C224.148 246.391 224.238 246.409 224.322 246.444C224.406 246.478 224.482 246.529 224.546 246.593C224.61 246.658 224.661 246.734 224.696 246.818C224.731 246.902 224.749 246.992 224.749 247.082V255.842ZM224.749 233.129C224.749 233.22 224.732 233.31 224.697 233.394C224.663 233.479 224.612 233.555 224.548 233.619C224.483 233.684 224.407 233.735 224.323 233.769C224.238 233.804 224.148 233.821 224.057 233.82H198.324C198.141 233.82 197.965 233.748 197.835 233.618C197.706 233.488 197.633 233.312 197.633 233.129V224.349C197.633 224.166 197.706 223.99 197.835 223.86C197.965 223.73 198.141 223.657 198.324 223.657H224.057C224.148 223.657 224.238 223.674 224.323 223.709C224.407 223.743 224.483 223.794 224.548 223.858C224.612 223.923 224.663 223.999 224.697 224.083C224.732 224.168 224.749 224.258 224.749 224.349V233.129ZM224.749 210.421C224.749 210.512 224.731 210.602 224.696 210.686C224.661 210.769 224.61 210.846 224.546 210.91C224.482 210.974 224.406 211.025 224.322 211.06C224.238 211.095 224.148 211.112 224.057 211.112H198.324C198.141 211.111 197.966 211.038 197.837 210.908C197.707 210.779 197.634 210.604 197.633 210.421V201.636C197.634 201.453 197.707 201.278 197.837 201.148C197.966 201.019 198.141 200.946 198.324 200.944H224.057C224.148 200.944 224.238 200.962 224.322 200.997C224.406 201.032 224.482 201.083 224.546 201.147C224.61 201.211 224.661 201.287 224.696 201.371C224.731 201.455 224.749 201.545 224.749 201.636V210.421ZM224.749 187.708C224.749 187.799 224.732 187.889 224.697 187.973C224.663 188.058 224.612 188.134 224.548 188.198C224.483 188.263 224.407 188.314 224.323 188.348C224.238 188.383 224.148 188.4 224.057 188.399H198.324C198.141 188.399 197.965 188.327 197.835 188.197C197.706 188.067 197.633 187.891 197.633 187.708V178.954C197.633 178.77 197.706 178.594 197.835 178.465C197.965 178.335 198.141 178.262 198.324 178.262H224.057C224.148 178.261 224.238 178.279 224.323 178.313C224.407 178.348 224.483 178.399 224.548 178.463C224.612 178.527 224.663 178.604 224.697 178.688C224.732 178.772 224.749 178.863 224.749 178.954V187.708ZM224.749 165C224.749 165.091 224.731 165.181 224.696 165.265C224.661 165.348 224.61 165.425 224.546 165.489C224.482 165.553 224.406 165.604 224.322 165.639C224.238 165.674 224.148 165.691 224.057 165.691H198.324C198.141 165.69 197.966 165.617 197.837 165.487C197.707 165.358 197.634 165.183 197.633 165V156.215C197.634 156.032 197.707 155.858 197.837 155.729C197.967 155.601 198.142 155.528 198.324 155.529H224.057C224.148 155.528 224.237 155.545 224.321 155.579C224.405 155.613 224.481 155.664 224.546 155.728C224.61 155.792 224.661 155.867 224.696 155.951C224.731 156.035 224.749 156.124 224.749 156.215V165ZM224.749 142.292C224.749 142.383 224.731 142.472 224.696 142.556C224.661 142.64 224.61 142.715 224.546 142.779C224.481 142.843 224.405 142.893 224.321 142.928C224.237 142.962 224.148 142.979 224.057 142.978H198.324C198.142 142.978 197.967 142.906 197.837 142.778C197.707 142.649 197.634 142.475 197.633 142.292V133.507C197.634 133.324 197.707 133.149 197.837 133.019C197.966 132.89 198.141 132.817 198.324 132.815H224.057C224.148 132.815 224.238 132.833 224.322 132.868C224.406 132.903 224.482 132.954 224.546 133.018C224.61 133.082 224.661 133.158 224.696 133.242C224.731 133.326 224.749 133.416 224.749 133.507V142.292ZM224.749 119.579C224.749 119.67 224.732 119.76 224.697 119.844C224.663 119.929 224.612 120.005 224.548 120.069C224.483 120.134 224.407 120.185 224.323 120.219C224.238 120.254 224.148 120.271 224.057 120.271H198.324C198.141 120.271 197.965 120.198 197.835 120.068C197.706 119.938 197.633 119.762 197.633 119.579V110.825C197.633 110.641 197.706 110.465 197.835 110.336C197.965 110.206 198.141 110.133 198.324 110.133H224.057C224.148 110.132 224.238 110.15 224.323 110.184C224.407 110.219 224.483 110.27 224.548 110.334C224.612 110.399 224.663 110.475 224.697 110.559C224.732 110.643 224.749 110.734 224.749 110.825V119.579ZM266.437 255.837C266.437 255.927 266.419 256.017 266.384 256.101C266.349 256.184 266.298 256.26 266.234 256.324C266.17 256.388 266.093 256.438 266.009 256.472C265.926 256.507 265.836 256.524 265.745 256.523H240.012C239.83 256.523 239.655 256.451 239.525 256.322C239.396 256.194 239.322 256.019 239.321 255.837V247.082C239.322 246.899 239.395 246.724 239.525 246.595C239.654 246.466 239.829 246.392 240.012 246.391H265.745C265.929 246.391 266.104 246.464 266.234 246.593C266.364 246.723 266.437 246.899 266.437 247.082V255.837ZM266.437 233.124C266.437 233.215 266.42 233.305 266.385 233.389C266.351 233.473 266.3 233.55 266.236 233.614C266.171 233.679 266.095 233.729 266.011 233.764C265.926 233.799 265.836 233.816 265.745 233.815H240.012C239.829 233.815 239.653 233.742 239.523 233.613C239.394 233.483 239.321 233.307 239.321 233.124V224.349C239.321 224.166 239.394 223.99 239.523 223.86C239.653 223.73 239.829 223.657 240.012 223.657H265.745C265.836 223.657 265.926 223.674 266.011 223.709C266.095 223.743 266.171 223.794 266.236 223.858C266.3 223.923 266.351 223.999 266.385 224.083C266.42 224.168 266.437 224.258 266.437 224.349V233.124ZM266.437 210.416C266.437 210.599 266.364 210.775 266.234 210.905C266.104 211.034 265.929 211.107 265.745 211.107H240.012C239.829 211.106 239.654 211.033 239.525 210.903C239.395 210.774 239.322 210.599 239.321 210.416V201.636C239.322 201.453 239.395 201.278 239.525 201.148C239.654 201.019 239.829 200.946 240.012 200.944H265.745C265.929 200.944 266.104 201.017 266.234 201.147C266.364 201.277 266.437 201.452 266.437 201.636V210.416ZM266.437 187.703C266.437 187.794 266.42 187.884 266.385 187.968C266.351 188.052 266.3 188.129 266.236 188.193C266.171 188.258 266.095 188.309 266.011 188.343C265.926 188.378 265.836 188.395 265.745 188.394H240.012C239.829 188.394 239.653 188.321 239.523 188.192C239.394 188.062 239.321 187.886 239.321 187.703V178.954C239.321 178.77 239.394 178.594 239.523 178.465C239.653 178.335 239.829 178.262 240.012 178.262H265.745C265.836 178.261 265.926 178.279 266.011 178.313C266.095 178.348 266.171 178.399 266.236 178.463C266.3 178.527 266.351 178.604 266.385 178.688C266.42 178.772 266.437 178.863 266.437 178.954V187.703ZM266.437 164.995C266.437 165.178 266.364 165.354 266.234 165.484C266.104 165.614 265.929 165.686 265.745 165.686H240.012C239.829 165.685 239.654 165.612 239.525 165.482C239.395 165.353 239.322 165.178 239.321 164.995V156.215C239.322 156.032 239.396 155.858 239.525 155.729C239.655 155.601 239.83 155.528 240.012 155.529H265.745C265.836 155.528 265.926 155.545 266.009 155.579C266.093 155.613 266.17 155.664 266.234 155.728C266.298 155.792 266.349 155.867 266.384 155.951C266.419 156.035 266.437 156.124 266.437 156.215V164.995ZM266.437 142.287C266.437 142.377 266.419 142.467 266.384 142.551C266.349 142.634 266.298 142.71 266.234 142.774C266.17 142.838 266.093 142.888 266.009 142.923C265.926 142.957 265.836 142.974 265.745 142.973H240.012C239.83 142.973 239.655 142.901 239.525 142.773C239.396 142.644 239.322 142.469 239.321 142.287V133.507C239.322 133.324 239.395 133.149 239.525 133.019C239.654 132.89 239.829 132.817 240.012 132.815H265.745C265.929 132.815 266.104 132.888 266.234 133.018C266.364 133.148 266.437 133.324 266.437 133.507V142.287ZM266.437 119.574C266.437 119.665 266.42 119.755 266.385 119.839C266.351 119.924 266.3 120 266.236 120.064C266.171 120.129 266.095 120.18 266.011 120.214C265.926 120.249 265.836 120.266 265.745 120.265H240.012C239.829 120.265 239.653 120.193 239.523 120.063C239.394 119.933 239.321 119.757 239.321 119.574V110.825C239.321 110.641 239.394 110.465 239.523 110.336C239.653 110.206 239.829 110.133 240.012 110.133H265.745C265.836 110.132 265.926 110.15 266.011 110.184C266.095 110.219 266.171 110.27 266.236 110.334C266.3 110.399 266.351 110.475 266.385 110.559C266.42 110.643 266.437 110.734 266.437 110.825V119.574ZM327.445 255.832C327.444 256.014 327.37 256.189 327.241 256.317C327.111 256.446 326.936 256.518 326.753 256.518H301.02C300.93 256.519 300.84 256.501 300.756 256.467C300.672 256.433 300.596 256.383 300.532 256.319C300.468 256.255 300.417 256.179 300.382 256.096C300.347 256.012 300.329 255.922 300.329 255.832V247.082C300.329 246.899 300.402 246.723 300.532 246.593C300.661 246.464 300.837 246.391 301.02 246.391H326.753C326.936 246.392 327.112 246.466 327.241 246.595C327.37 246.724 327.444 246.899 327.445 247.082V255.832ZM327.445 233.119C327.445 233.302 327.372 233.478 327.242 233.608C327.113 233.737 326.937 233.81 326.753 233.81H301.02C300.929 233.811 300.839 233.793 300.755 233.759C300.671 233.724 300.594 233.673 300.53 233.609C300.466 233.545 300.415 233.468 300.38 233.384C300.346 233.3 300.328 233.21 300.329 233.119V224.349C300.328 224.258 300.346 224.168 300.38 224.083C300.415 223.999 300.466 223.923 300.53 223.858C300.594 223.794 300.671 223.743 300.755 223.709C300.839 223.674 300.929 223.657 301.02 223.657H326.753C326.937 223.657 327.113 223.73 327.242 223.86C327.372 223.99 327.445 224.166 327.445 224.349V233.119ZM327.445 210.411C327.444 210.594 327.37 210.769 327.241 210.898C327.112 211.028 326.936 211.101 326.753 211.102H301.02C300.837 211.102 300.661 211.029 300.532 210.9C300.402 210.77 300.329 210.594 300.329 210.411V201.636C300.329 201.452 300.402 201.277 300.532 201.147C300.661 201.017 300.837 200.944 301.02 200.944H326.753C326.936 200.946 327.112 201.019 327.241 201.148C327.37 201.278 327.444 201.453 327.445 201.636V210.411ZM327.445 187.698C327.445 187.881 327.372 188.057 327.242 188.187C327.113 188.316 326.937 188.389 326.753 188.389H301.02C300.841 188.388 300.669 188.316 300.542 188.19C300.415 188.064 300.342 187.892 300.339 187.713V178.954C300.339 178.863 300.356 178.772 300.39 178.688C300.425 178.604 300.476 178.527 300.54 178.463C300.605 178.399 300.681 178.348 300.765 178.313C300.849 178.279 300.94 178.261 301.031 178.262H326.764C326.947 178.262 327.123 178.335 327.253 178.465C327.382 178.594 327.455 178.77 327.455 178.954L327.445 187.698ZM327.445 164.99C327.444 165.173 327.37 165.348 327.241 165.477C327.112 165.607 326.936 165.68 326.753 165.681H301.02C300.837 165.681 300.661 165.608 300.532 165.479C300.402 165.349 300.329 165.173 300.329 164.99V156.215C300.329 156.124 300.347 156.035 300.382 155.951C300.417 155.867 300.468 155.792 300.532 155.728C300.596 155.664 300.672 155.613 300.756 155.579C300.84 155.545 300.93 155.528 301.02 155.529H326.753C326.936 155.528 327.111 155.601 327.241 155.729C327.37 155.858 327.444 156.032 327.445 156.215V164.99ZM327.445 142.282C327.444 142.464 327.37 142.639 327.241 142.767C327.111 142.896 326.936 142.968 326.753 142.968H301.02C300.93 142.969 300.84 142.952 300.756 142.917C300.672 142.883 300.596 142.833 300.532 142.769C300.468 142.705 300.417 142.629 300.382 142.546C300.347 142.462 300.329 142.372 300.329 142.282V133.507C300.329 133.324 300.402 133.148 300.532 133.018C300.661 132.888 300.837 132.815 301.02 132.815H326.753C326.936 132.817 327.112 132.89 327.241 133.019C327.37 133.149 327.444 133.324 327.445 133.507V142.282ZM327.445 119.569C327.445 119.66 327.427 119.749 327.392 119.833C327.358 119.917 327.307 119.994 327.242 120.058C327.178 120.122 327.102 120.173 327.018 120.208C326.934 120.242 326.844 120.26 326.753 120.26H301.02C300.841 120.259 300.669 120.187 300.542 120.061C300.415 119.935 300.342 119.764 300.339 119.584V110.825C300.339 110.734 300.356 110.643 300.39 110.559C300.425 110.475 300.476 110.399 300.54 110.334C300.605 110.27 300.681 110.219 300.765 110.184C300.849 110.15 300.94 110.132 301.031 110.133H326.764C326.947 110.133 327.123 110.206 327.253 110.336C327.382 110.465 327.455 110.641 327.455 110.825L327.445 119.569Z" fill="#F2F2F2"/>
<path d="M136.835 22.6618L128.885 27.7023L133.71 18.9224C132.344 17.8322 130.653 17.2284 128.906 17.2064H128.778C128.225 17.2147 127.673 17.1735 127.128 17.0834L124.434 18.7892L125.587 16.689C123.676 16.0228 122.026 14.7673 120.874 13.1033L116.055 16.1768L119.097 10.6394C116.28 7.25342 112.479 5.17882 108.295 5.17882C103.28 5.17882 98.8139 8.1601 95.9302 12.8062C95.0774 14.2012 93.869 15.3444 92.4289 16.1185C90.9889 16.8926 89.3688 17.2699 87.7349 17.2115H87.4686C81.9317 17.2115 77.4448 23.4917 77.4448 31.2317C77.4448 38.9718 81.9522 45.257 87.4891 45.257C88.7054 45.2507 89.9022 44.9502 90.9772 44.3811C92.8616 43.4641 94.923 42.9681 97.0183 42.9274C99.1135 42.8867 101.193 43.3024 103.111 44.1455C104.734 44.8714 106.491 45.2467 108.269 45.2467C110.047 45.2467 111.804 44.8714 113.427 44.1455C115.33 43.3199 117.389 42.9137 119.463 42.9544C121.538 42.995 123.579 43.4816 125.448 44.3811C126.514 44.9454 127.7 45.2458 128.906 45.257C134.443 45.257 138.929 38.9769 138.929 31.2317C138.962 28.2444 138.242 25.297 136.835 22.6618Z" fill="#F2F2F2"/>
<path opacity="0.03" d="M121.853 43.1773C118.96 42.6266 115.97 42.9512 113.263 44.1096C111.641 44.8339 109.884 45.2082 108.108 45.2082C106.331 45.2082 104.575 44.8339 102.952 44.1096C101.033 43.2689 98.9544 42.8545 96.8596 42.8952C94.7647 42.9359 92.7036 43.4306 90.8184 44.3452C89.7427 44.9173 88.5435 45.2179 87.3252 45.2212C82.4081 45.2212 78.3156 40.2677 77.4653 33.7315C78.4482 33.0138 79.2831 32.1127 79.9239 31.078C82.8076 26.432 87.274 23.4507 92.2884 23.4507C97.3029 23.4507 101.713 26.3961 104.581 30.9961C105.44 32.3854 106.644 33.5288 108.076 34.3151C109.507 35.1014 111.118 35.5039 112.751 35.4834H112.879C116.813 35.4577 120.203 38.5978 121.853 43.1773Z" fill="black"/>
<path d="M416.998 8.72357L413.024 11.2387L415.431 6.85899C414.749 6.31572 413.906 6.01477 413.034 6.00354H412.972C412.696 6.00896 412.42 5.98837 412.148 5.94207L410.806 6.79752L411.379 5.77303C410.429 5.4395 409.606 4.81602 409.028 3.99041L406.626 5.52715L408.163 2.76614C407.529 1.93282 406.716 1.25192 405.784 0.773303C404.853 0.294687 403.826 0.0304727 402.78 0C400.28 0 398.052 1.49064 396.633 3.806C396.206 4.50257 395.602 5.07314 394.882 5.45928C394.162 5.84541 393.352 6.03324 392.536 6.00354H392.402C389.642 6.00354 387.403 9.13337 387.403 12.9957C387.403 16.8581 389.642 19.9879 392.402 19.9879C393.01 19.9859 393.607 19.8365 394.144 19.5525C395.083 19.0959 396.111 18.8488 397.155 18.8285C398.2 18.8081 399.236 19.015 400.193 19.4347C401.003 19.7961 401.88 19.983 402.767 19.983C403.654 19.983 404.531 19.7961 405.341 19.4347C406.29 19.0236 407.318 18.8215 408.352 18.8418C409.387 18.8621 410.405 19.1045 411.338 19.5525C411.87 19.8303 412.46 19.9761 413.059 19.9776C415.82 19.9776 418.059 16.8478 418.059 12.9855C418.067 11.4986 417.702 10.0334 416.998 8.72357Z" fill="#F2F2F2"/>
<path opacity="0.03" d="M409.525 18.9531C408.082 18.6817 406.59 18.8439 405.238 19.4193C404.432 19.7779 403.559 19.9629 402.677 19.9623C401.794 19.9577 400.922 19.7693 400.116 19.409C399.159 18.9893 398.121 18.7824 397.076 18.8027C396.031 18.8231 395.002 19.0701 394.062 19.5269C393.525 19.8115 392.928 19.9609 392.32 19.9623C389.867 19.9623 387.828 17.4932 387.403 14.2302C387.894 13.8724 388.311 13.4238 388.633 12.9086C390.067 10.5933 392.295 9.10263 394.779 9.10263C397.263 9.10263 399.481 10.5728 400.925 12.8676C401.356 13.5639 401.96 14.1364 402.678 14.5288C403.397 14.9212 404.205 15.1202 405.023 15.1062H405.09C407.01 15.1062 408.701 16.6736 409.525 18.9531Z" fill="black"/>
<path d="M317.472 54.79L312.811 57.7456L315.639 52.6232C314.84 51.9773 313.848 51.6168 312.821 51.5987H312.745C312.42 51.6032 312.097 51.5792 311.777 51.527L310.199 52.5515L310.875 51.3169C309.756 50.9269 308.788 50.1938 308.109 49.2218L305.282 51.0147L307.069 47.7671C306.318 46.7957 305.359 46.0039 304.263 45.4492C303.167 44.8945 301.961 44.5909 300.734 44.5604C297.793 44.5604 295.171 46.3123 293.481 49.0374C292.979 49.8495 292.271 50.5142 291.429 50.9641C290.587 51.4139 289.641 51.6329 288.687 51.5987H288.528C285.28 51.5987 282.653 55.2817 282.653 59.7946C282.653 64.3075 285.28 68.0162 288.528 68.0162C289.242 68.0149 289.946 67.8391 290.577 67.504C291.682 66.967 292.89 66.6765 294.119 66.6526C295.347 66.6287 296.566 66.872 297.691 67.3657C298.643 67.7895 299.674 68.0085 300.716 68.0085C301.758 68.0085 302.788 67.7895 303.74 67.3657C304.857 66.8819 306.065 66.6439 307.282 66.6677C308.499 66.6916 309.696 66.9768 310.793 67.504C311.425 67.8368 312.128 68.0125 312.842 68.0162C316.089 68.0162 318.722 64.3383 318.722 59.7946C318.73 58.0482 318.3 56.3275 317.472 54.79Z" fill="#F2F2F2"/>
<path opacity="0.03" d="M308.688 66.8226C306.991 66.5014 305.236 66.6921 303.648 67.3707C302.696 67.7946 301.665 68.0136 300.623 68.0136C299.581 68.0136 298.551 67.7946 297.599 67.3707C296.474 66.8771 295.255 66.6338 294.026 66.6577C292.798 66.6816 291.589 66.9721 290.484 67.5091C289.853 67.8436 289.15 68.0194 288.436 68.0213C285.552 68.0213 283.15 65.1169 282.653 61.2853C283.227 60.8704 283.716 60.3486 284.092 59.7485C285.782 57.0234 288.405 55.2766 291.345 55.2766C294.285 55.2766 296.877 57.0029 298.567 59.6973C299.07 60.5126 299.775 61.1837 300.614 61.6452C301.454 62.1066 302.398 62.3427 303.356 62.3302H303.412C305.728 62.2944 307.72 64.1385 308.688 66.8226Z" fill="black"/>
<path d="M485.182 291.571C485.182 292.452 485.182 293.333 485.126 294.204C484.995 297.594 484.587 300.967 483.907 304.29C480.542 320.738 470.825 333.524 458.62 337.299C456.192 338.056 453.664 338.441 451.121 338.442C432.308 338.442 417.06 317.44 417.06 291.571C417.06 265.703 432.308 244.701 451.121 244.701C468.766 244.701 483.282 263.172 485.008 286.833C485.126 288.39 485.182 289.973 485.182 291.571Z" fill="#36334A"/>
<path opacity="0.1" d="M485.126 294.209C484.995 297.599 484.588 300.972 483.907 304.295C480.542 320.744 470.826 333.529 458.62 337.305C449.17 332.956 442.158 316.656 442.158 297.211C442.158 274.436 451.787 255.975 463.67 255.975C473.643 255.975 482.033 268.996 484.465 286.664C484.804 289.087 485.024 291.617 485.126 294.209Z" fill="black"/>
<path d="M314.107 187.841C314.107 187.841 406.304 168.888 454.963 186.304C454.963 186.304 462.133 189.89 454.963 196.037C454.963 196.037 461.744 203.208 449.902 205.77L402.856 208.664L314.107 199.623V187.841Z" fill="#3F3D56"/>
<path opacity="0.1" d="M330.242 190.223C330.242 190.223 409.177 173.995 450.839 188.907C450.839 188.907 456.986 191.98 450.839 197.241C450.839 197.241 456.643 203.388 446.506 205.575L406.227 208.049L330.242 200.319V190.223Z" fill="black"/>
<path d="M420.133 218.576L413.986 206.282C413.986 206.282 416.681 193.845 394.779 190.187C393.565 184.762 388.064 180.67 381.462 180.67C375.018 180.67 369.63 184.563 368.237 189.788C365.092 190.059 361.742 190.428 358.156 190.915L353.147 217.777L352.522 216.527C352.522 216.527 355.703 201.836 327.035 199.689C328.598 197.795 329.459 195.419 329.473 192.964C329.473 186.453 323.393 181.182 315.9 181.182C308.406 181.182 302.327 186.453 302.327 192.964C302.346 195.638 303.362 198.21 305.174 200.176C302.494 200.432 299.666 200.76 296.692 201.159L291.058 231.382L317.18 234.968L358.669 228.821L354.996 221.47L378.644 224.718L420.133 218.576Z" fill="#6C63FF"/>
<path opacity="0.2" d="M420.133 218.576L413.986 206.282C413.986 206.282 416.681 193.845 394.779 190.187C393.565 184.762 388.064 180.67 381.462 180.67C375.018 180.67 369.63 184.563 368.237 189.788C365.092 190.059 361.742 190.428 358.156 190.915L353.147 217.777L352.522 216.527C352.522 216.527 355.703 201.836 327.035 199.689C328.598 197.795 329.459 195.419 329.473 192.964C329.473 186.453 323.393 181.182 315.9 181.182C308.406 181.182 302.327 186.453 302.327 192.964C302.346 195.638 303.362 198.21 305.174 200.176C302.494 200.432 299.666 200.76 296.692 201.159L291.058 231.382L317.18 234.968L358.669 228.821L354.996 221.47L378.644 224.718L420.133 218.576Z" fill="black"/>
<path d="M332.024 191.365C332.024 191.365 327.926 168.376 346.878 167.863C365.829 167.351 359.683 201.16 359.683 201.16C359.683 201.16 374.024 204.233 375.049 209.868C376.073 215.502 325.365 217.039 325.365 217.039L332.024 191.365Z" fill="#6C63FF"/>
<path d="M298.741 312.829C298.741 339.978 278.56 362.005 253.667 362.005C228.774 362.005 208.594 339.978 208.594 312.829C208.594 285.68 229.025 259.3 253.924 259.3C278.822 259.3 298.741 285.67 298.741 312.829Z" fill="#36334A"/>
<path opacity="0.1" d="M253.668 356.365C273.469 356.365 289.522 337.791 289.522 314.878C289.522 291.966 273.469 273.391 253.668 273.391C233.866 273.391 217.813 291.966 217.813 314.878C217.813 337.791 233.866 356.365 253.668 356.365Z" fill="black"/>
<path d="M55.4458 357.39C80.3393 357.39 100.519 335.373 100.519 308.214C100.519 281.055 80.3393 259.038 55.4458 259.038C30.5522 259.038 10.3721 281.055 10.3721 308.214C10.3721 335.373 30.5522 357.39 55.4458 357.39Z" fill="#36334A"/>
<path d="M132.276 190.915C132.276 190.915 111.276 191.939 112.3 203.208C113.324 214.478 130.227 206.282 130.227 206.282L132.276 190.915Z" fill="#36334A"/>
<path d="M306.998 209.688L315.644 151.984C315.644 151.984 317.692 144.812 290.034 144.812C290.034 144.812 201.423 139.178 178.886 148.398C178.886 148.398 152.764 158.131 116.397 208.331C116.397 208.331 303.412 212.762 306.998 209.688Z" fill="#3F3D56"/>
<path d="M303.863 149.423L287.985 212.429L278.028 212.188L230.905 211.041L125.807 208.48C125.515 203.5 175.286 151.984 175.286 151.984L303.863 149.423Z" fill="#36334A"/>
<path opacity="0.2" d="M230.921 211.041L235.213 194.444C235.213 194.444 231.116 171.449 250.067 170.937C269.018 170.425 262.872 204.233 262.872 204.233C262.872 204.233 275.933 207.035 278.013 212.188L230.921 211.041Z" fill="#6C63FF"/>
<path d="M485.438 287.985C482.365 258.275 463.158 251.872 463.158 251.872C444.718 250.847 432.426 321.025 432.426 321.025L290.546 333.832C290.546 333.832 295.412 274.155 261.094 264.422C226.777 254.689 217.813 324.611 216.277 334.344C214.74 344.076 9.34767 333.319 3.71346 329.221C-1.92075 325.123 0.12805 285.68 1.66465 282.607C3.20126 279.533 7.29886 265.703 7.29886 265.703C7.29886 262.404 8.87644 258.234 10.1877 255.34C11.1096 253.291 11.9087 251.872 11.9087 251.872C16.3597 226.628 39.4702 220.517 41.0222 220.113H41.1041C47.2505 213.966 104.105 209.868 104.105 209.868L125.617 205.77L300.519 209.207L307.961 209.355L396.879 205.078L457.011 202.184C470.841 202.184 478.012 237.017 478.012 237.017C490.817 267.752 485.438 287.985 485.438 287.985Z" fill="#3F3D56"/>
<path opacity="0.1" d="M197.093 257.817C210.603 252.38 218.796 241.116 215.392 232.657C211.988 224.198 198.277 221.748 184.768 227.185C171.258 232.622 163.065 243.887 166.468 252.346C169.872 260.804 183.583 263.254 197.093 257.817Z" fill="black"/>
<path d="M196.07 255.766C209.579 250.329 217.772 239.064 214.369 230.606C210.965 222.147 197.254 219.697 183.744 225.134C170.234 230.571 162.041 241.835 165.445 250.294C168.849 258.753 182.56 261.203 196.07 255.766Z" fill="#F2F2F2"/>
<path opacity="0.1" d="M42.0464 221.158C41.7852 226.792 39.26 233.902 34.7168 240.751C27.4077 251.775 17.3839 258.265 11.2119 256.364C12.1339 254.315 12.9329 252.896 12.9329 252.896C17.3839 227.653 40.4945 221.542 42.0464 221.158Z" fill="black"/>
<path d="M40.5098 220.133C40.2486 225.768 37.7234 232.878 33.1802 239.727C25.8711 250.75 15.8473 257.24 9.67529 255.34C10.5973 253.291 11.3963 251.872 11.3963 251.872C15.8473 226.628 38.9578 220.517 40.5098 220.133Z" fill="#F2F2F2"/>
<path d="M112.3 235.475H71.8364L69.7876 229.84H118.959L112.3 235.475Z" fill="#36334A"/>
<path d="M103.08 276.967H36.4941V296.432H103.08V276.967Z" fill="#36334A"/>
<path opacity="0.1" d="M174.788 315.385C179.88 315.385 184.008 311.257 184.008 306.165C184.008 301.073 179.88 296.945 174.788 296.945C169.697 296.945 165.569 301.073 165.569 306.165C165.569 311.257 169.697 315.385 174.788 315.385Z" fill="black"/>
<path d="M173.764 313.849C178.856 313.849 182.984 309.721 182.984 304.628C182.984 299.536 178.856 295.408 173.764 295.408C168.672 295.408 164.544 299.536 164.544 304.628C164.544 309.721 168.672 313.849 173.764 313.849Z" fill="#F2F2F2"/>
<path opacity="0.1" d="M7.29877 308.726C9.8447 308.726 11.9086 304.369 11.9086 298.994C11.9086 293.618 9.8447 289.261 7.29877 289.261C4.75285 289.261 2.68896 293.618 2.68896 298.994C2.68896 304.369 4.75285 308.726 7.29877 308.726Z" fill="black"/>
<path d="M5.76215 308.214C8.30808 308.214 10.372 303.857 10.372 298.481C10.372 293.106 8.30808 288.749 5.76215 288.749C3.21623 288.749 1.15234 293.106 1.15234 298.481C1.15234 303.857 3.21623 308.214 5.76215 308.214Z" fill="#F2F2F2"/>
<path d="M411.938 257.507C406.303 274.923 405.791 302.072 405.791 302.072L403.742 309.244L303.863 320.513C303.863 320.513 304.375 270.313 305.912 246.749C306.993 230.127 302.982 216.056 300.519 209.207L307.961 209.355L396.879 205.078C411.733 215.492 416.993 241.868 411.938 257.507Z" fill="#36334A"/>
<path d="M389.165 226.106C388.816 226.129 388.475 226.225 388.164 226.388C387.854 226.551 387.581 226.777 387.363 227.051C387.145 227.326 386.987 227.642 386.899 227.982C386.81 228.321 386.794 228.675 386.85 229.021C386.899 229.31 387.018 229.583 387.196 229.816C387.375 230.05 387.608 230.235 387.875 230.358C389.529 231.182 400.541 229.333 404.716 228.595C405.334 228.495 405.901 228.193 406.329 227.736C406.758 227.279 407.022 226.693 407.082 226.07C407.133 225.343 406.867 224.723 405.802 224.723L389.165 226.106Z" fill="#F2F2F2"/>
<path d="M300.278 207.306C300.278 207.306 302.839 218.576 315.132 214.99L319.229 199.111L311.034 194.5L300.278 207.306Z" fill="#36334A"/>
<path d="M315.331 184.424C320.966 181.085 329.903 178.165 338.744 185.177C340.584 186.63 341.882 188.66 342.429 190.94C342.977 193.22 342.741 195.618 341.761 197.748C338.867 204.013 331.998 210.81 315.961 202.671C314.387 201.872 313.044 200.683 312.058 199.218L311.976 199.095C311.201 197.922 310.671 196.603 310.419 195.218C310.168 193.834 310.2 192.413 310.514 191.042C310.827 189.67 311.416 188.376 312.244 187.239C313.072 186.102 314.123 185.144 315.331 184.424Z" fill="#36334A"/>
<path d="M253.924 322.813C259.581 322.813 264.168 318.226 264.168 312.568C264.168 306.91 259.581 302.323 253.924 302.323C248.266 302.323 243.68 306.91 243.68 312.568C243.68 318.226 248.266 322.813 253.924 322.813Z" fill="#F2F2F2"/>
<path d="M465.463 304.372C468.574 304.372 471.097 299.785 471.097 294.127C471.097 288.469 468.574 283.882 465.463 283.882C462.351 283.882 459.829 288.469 459.829 294.127C459.829 299.785 462.351 304.372 465.463 304.372Z" fill="#F2F2F2"/>
<path d="M254.18 281.065H253.155C249.761 281.065 247.009 283.817 247.009 287.212V292.847C247.009 296.242 249.761 298.994 253.155 298.994H254.18C257.574 298.994 260.326 296.242 260.326 292.847V287.212C260.326 283.817 257.574 281.065 254.18 281.065Z" fill="#36334A"/>
<path d="M465.463 261.343C465.934 261.343 466.4 261.436 466.835 261.616C467.27 261.797 467.665 262.061 467.998 262.394C468.331 262.727 468.595 263.122 468.775 263.557C468.955 263.992 469.048 264.458 469.048 264.929V273.125C469.048 274.755 468.401 276.319 467.248 277.472C466.095 278.624 464.532 279.272 462.902 279.272C461.951 279.272 461.039 278.894 460.367 278.222C459.694 277.549 459.316 276.637 459.316 275.686V267.49C459.316 265.86 459.964 264.297 461.117 263.144C462.269 261.991 463.833 261.343 465.463 261.343Z" fill="#36334A"/>
<path d="M465.463 326.916C463.833 326.916 462.269 326.269 461.117 325.116C459.964 323.963 459.316 322.399 459.316 320.769V315.134C459.316 313.504 459.964 311.941 461.117 310.788C462.269 309.635 463.833 308.987 465.463 308.987C468.843 308.987 468.536 311.754 468.536 315.134V320.769C468.531 324.15 468.854 326.916 465.463 326.916Z" fill="#36334A"/>
<path d="M450.097 284.907C451.727 284.907 453.29 285.554 454.443 286.707C455.596 287.86 456.243 289.423 456.243 291.054V298.737C456.243 299.824 455.811 300.867 455.043 301.635C454.274 302.404 453.232 302.835 452.145 302.835C450.515 302.835 448.952 302.188 447.799 301.035C446.647 299.882 445.999 298.319 445.999 296.688V289.005C445.999 287.918 446.431 286.876 447.199 286.107C447.968 285.339 449.01 284.907 450.097 284.907Z" fill="#36334A"/>
<path d="M485.183 291.571C485.183 292.452 485.183 293.333 485.126 294.204C484.995 297.594 484.588 300.967 483.907 304.29C483.569 304.347 483.226 304.376 482.883 304.377C481.253 304.377 479.689 303.73 478.537 302.577C477.384 301.424 476.736 299.861 476.736 298.23V292.596C476.736 290.965 477.384 289.402 478.537 288.249C479.689 287.096 481.253 286.449 482.883 286.449C483.419 286.447 483.953 286.518 484.471 286.659C484.655 286.71 484.839 286.766 485.014 286.833C485.126 288.39 485.183 289.973 485.183 291.571Z" fill="#36334A"/>
<path d="M280.046 302.835H279.021C275.627 302.835 272.875 305.588 272.875 308.982V314.617C272.875 318.012 275.627 320.764 279.021 320.764H280.046C283.44 320.764 286.192 318.012 286.192 314.617V308.982C286.192 305.588 283.44 302.835 280.046 302.835Z" fill="#36334A"/>
<path d="M229.85 302.835H228.826C225.431 302.835 222.679 305.588 222.679 308.982V314.617C222.679 318.012 225.431 320.764 228.826 320.764H229.85C233.245 320.764 235.996 318.012 235.996 314.617V308.982C235.996 305.588 233.245 302.835 229.85 302.835Z" fill="#36334A"/>
<path d="M254.436 329.472H253.412C250.017 329.472 247.265 332.224 247.265 335.619V341.254C247.265 344.649 250.017 347.401 253.412 347.401H254.436C257.831 347.401 260.582 344.649 260.582 341.254V335.619C260.582 332.224 257.831 329.472 254.436 329.472Z" fill="#36334A"/>
<path d="M432.815 105.528C432.812 106.505 432.638 107.474 432.303 108.392C431.719 110.022 430.651 111.435 429.242 112.442C427.833 113.449 426.15 114.002 424.419 114.026C422.687 114.051 420.989 113.546 419.553 112.579C418.116 111.612 417.008 110.23 416.378 108.617C415.992 107.638 415.794 106.596 415.794 105.543C415.794 103.288 416.69 101.125 418.285 99.5307C419.879 97.936 422.042 97.0401 424.297 97.0401C426.552 97.0401 428.715 97.936 430.309 99.5307C431.904 101.125 432.799 103.288 432.799 105.543L432.815 105.528Z" fill="#FF6584"/>
<path d="M417.521 107.649C416.979 106.672 416.635 105.599 416.508 104.489C416.381 103.38 416.474 102.256 416.781 101.183C417.088 100.109 417.604 99.1066 418.298 98.2323C418.993 97.358 419.853 96.6292 420.83 96.0873C421.778 95.55 422.822 95.2021 423.903 95.0629C422.731 95.0213 421.564 95.2224 420.474 95.6536C419.384 96.0849 418.394 96.7368 417.568 97.5686C416.742 98.4004 416.097 99.3941 415.673 100.487C415.25 101.58 415.057 102.749 415.106 103.92C415.156 105.092 415.447 106.24 415.962 107.294C416.476 108.347 417.203 109.282 418.096 110.041C418.99 110.8 420.031 111.366 421.153 111.704C422.276 112.042 423.456 112.143 424.62 112.003C423.162 111.947 421.744 111.518 420.5 110.755C419.257 109.993 418.231 108.923 417.521 107.649Z" fill="#FF6584"/>
<path d="M436.462 117.371H413.684V152.906H436.462V117.371Z" fill="#FF6584"/>
<path opacity="0.1" d="M436.974 116.347H414.196V151.881H436.974V116.347Z" fill="black"/>
<path d="M377.682 246.294C377.682 246.294 375.254 252.953 369.486 253.885C363.719 254.817 360.39 256.303 360.39 256.303L374.055 265.108L381.344 264.197C381.344 264.197 382.25 254.782 385.288 252.656C388.325 250.53 377.682 246.294 377.682 246.294Z" fill="#FBBEBE"/>
<path d="M476.393 246.294C476.393 246.294 478.821 252.953 484.588 253.885C490.356 254.817 493.695 256.318 493.695 256.318L480.03 265.124L472.741 264.212C472.741 264.212 471.834 254.797 468.797 252.671C465.76 250.545 476.393 246.294 476.393 246.294Z" fill="#FBBEBE"/>
<path d="M409.889 187.375C409.889 187.375 406.242 189.199 405.028 192.841C405.028 192.841 398.37 194.966 394.702 200.739C394.702 200.739 390.149 205.596 389.539 208.029C388.93 210.462 381.948 225.056 381.948 225.056C381.948 225.056 374.967 247.83 371.32 250.264C371.32 250.264 382.86 247.83 384.986 259.371C384.986 259.371 387.721 259.371 390.758 248.742C393.796 238.113 401.079 225.056 401.079 225.056C401.079 225.056 403.512 215.943 405.638 214.427C407.763 212.91 411.103 205.923 414.14 207.742C417.178 209.56 437.22 207.44 437.22 207.44C437.22 207.44 449.062 212.905 449.364 216.553C449.667 220.2 451.797 220.497 452.1 223.534C452.402 226.572 463.639 250.566 463.639 250.566C463.639 250.566 465.765 257.225 466.369 258.762C466.369 258.762 473.054 242.667 481.858 251.775C481.858 251.775 481.556 245.699 478.821 242.042C476.086 238.385 464.244 209.847 464.244 209.847C464.244 209.847 463.03 205.596 461.816 204.382C460.602 203.168 451.188 193.45 447.853 193.45C447.853 193.45 446.03 188.891 443.904 188.287L409.889 187.375Z" fill="#696880"/>
<path d="M382.558 262.086C380.185 263.039 377.606 263.36 375.072 263.019C372.538 262.678 370.135 261.686 368.099 260.14C366.12 258.621 363.952 257.366 361.65 256.405C358.433 255.104 354.576 254.136 353.403 256.318C351.278 260.263 379.218 269.985 379.218 269.985C379.218 269.985 382.86 267.854 382.558 262.086Z" fill="#696880"/>
<path d="M471.532 262.086C473.905 263.039 476.485 263.36 479.019 263.019C481.553 262.678 483.955 261.686 485.992 260.14C487.971 258.621 490.138 257.366 492.441 256.405C495.657 255.104 499.514 254.136 500.687 256.318C502.813 260.263 474.872 269.985 474.872 269.985C474.872 269.985 471.23 267.854 471.532 262.086Z" fill="#696880"/>
<path d="M419.815 137.421C419.698 138.476 419.354 139.618 418.453 140.182C417.715 140.643 416.783 140.602 415.933 140.781C415.04 141.002 414.211 141.431 413.514 142.033C412.817 142.635 412.272 143.392 411.922 144.244C411.242 145.963 411.11 147.85 411.543 149.648C411.742 150.53 412 151.398 412.317 152.245C413.213 154.765 414.289 157.26 415.948 159.36C417.369 161.024 418.966 162.528 420.712 163.847C421.793 164.728 422.909 165.63 424.241 166.045C425.145 166.284 426.076 166.406 427.012 166.409C428.164 166.465 429.389 166.501 430.387 165.927C431.924 165.041 432.385 163.079 433.215 161.512C433.927 160.175 434.982 159.048 435.642 157.685C436.11 156.616 436.454 155.497 436.667 154.35L438.086 148.045C438.598 145.76 439.069 143.178 437.778 141.216C437.688 141.054 437.558 140.919 437.399 140.822C437.154 140.723 436.886 140.694 436.626 140.74C434.993 140.85 433.363 140.477 431.939 139.669C431.714 139.557 431.513 139.4 431.35 139.208C431.141 138.884 431.016 138.512 430.987 138.127C430.848 137.345 430.628 136.58 430.331 135.843C430.246 135.58 430.092 135.344 429.885 135.162C429.669 135.025 429.423 134.942 429.168 134.921C426.976 134.563 424.765 134.331 422.546 134.224C421.813 134.193 420.717 133.901 420.22 134.542C419.723 135.182 419.897 136.652 419.815 137.421Z" fill="#FBBEBE"/>
<path opacity="0.1" d="M419.815 137.421C419.698 138.476 419.354 139.618 418.453 140.182C417.715 140.643 416.783 140.602 415.933 140.781C415.04 141.002 414.211 141.431 413.514 142.033C412.817 142.635 412.272 143.392 411.922 144.244C411.242 145.963 411.11 147.85 411.543 149.648C411.742 150.53 412 151.398 412.317 152.245C413.213 154.765 414.289 157.26 415.948 159.36C417.369 161.024 418.966 162.528 420.712 163.847C421.793 164.728 422.909 165.63 424.241 166.045C425.145 166.284 426.076 166.406 427.012 166.409C428.164 166.465 429.389 166.501 430.387 165.927C431.924 165.041 432.385 163.079 433.215 161.512C433.927 160.175 434.982 159.048 435.642 157.685C436.11 156.616 436.454 155.497 436.667 154.35L438.086 148.045C438.598 145.76 439.069 143.178 437.778 141.216C437.688 141.054 437.558 140.919 437.399 140.822C437.154 140.723 436.886 140.694 436.626 140.74C434.993 140.85 433.363 140.477 431.939 139.669C431.714 139.557 431.513 139.4 431.35 139.208C431.141 138.884 431.016 138.512 430.987 138.127C430.848 137.345 430.628 136.58 430.331 135.843C430.246 135.58 430.092 135.344 429.885 135.162C429.669 135.025 429.423 134.942 429.168 134.921C426.976 134.563 424.765 134.331 422.546 134.224C421.813 134.193 420.717 133.901 420.22 134.542C419.723 135.182 419.897 136.652 419.815 137.421Z" fill="black"/>
<path d="M415.703 141.047C414.514 140.694 413.285 140.499 412.045 140.468C409.116 140.397 405.986 141.411 404.291 143.803C403.143 145.528 402.722 147.635 403.118 149.668C403.528 151.687 404.444 153.567 405.781 155.134C406.554 155.956 407.241 156.856 407.83 157.818C408.639 159.355 408.66 161.189 408.854 162.941C409.367 167.095 411.139 171.009 411.846 175.137C412.552 179.266 411.938 184.061 408.675 186.694C408.127 187.134 407.466 187.595 407.42 188.297C407.343 189.419 408.803 189.9 409.925 190.003C413.28 190.325 416.722 190.638 419.979 189.772C421.332 189.414 422.627 188.855 424 188.599C427.488 187.949 430.992 189.28 434.475 189.926C436.999 190.34 439.553 190.547 442.112 190.546C442.709 190.599 443.31 190.52 443.874 190.315C444.152 190.206 444.388 190.011 444.548 189.759C444.709 189.507 444.784 189.21 444.765 188.912C444.653 188.524 444.445 188.172 444.16 187.887C442.398 185.705 441.861 182.816 441.379 180.055L439.791 170.758C438.926 165.799 438.122 160.415 440.467 155.959C442.158 152.757 445.262 150.503 447.044 147.353C447.674 146.399 447.96 145.259 447.853 144.121C447.587 142.538 446.158 141.406 444.693 140.74C441.878 139.481 438.684 139.365 435.786 140.417C435.837 142.635 435.274 144.879 434.905 147.076L434.285 150.662C433.971 152.775 433.509 154.863 432.902 156.912C432.677 157.729 432.3 158.497 431.791 159.176C431.244 159.784 430.576 160.271 429.829 160.605C428.211 161.396 426.431 161.801 424.63 161.788C423.851 161.804 423.075 161.686 422.336 161.44C421.116 160.999 420.128 160.093 419.175 159.212C418.862 158.945 418.582 158.643 418.34 158.31C418.089 157.882 417.898 157.422 417.772 156.942C417.357 155.69 417.032 154.409 416.799 153.111C416.64 152.117 416.594 151.108 416.522 150.104C416.297 147.194 416.302 143.9 415.703 141.047Z" fill="#F2F2F2"/>
<path d="M412.619 199.828C412.619 199.828 411.405 215.922 418.996 218.658C426.587 221.393 419.908 205.293 419.908 205.293L417.48 200.432L412.619 199.828Z" fill="#FBBEBE"/>
<path d="M438.434 199.828C438.434 199.828 439.648 215.922 432.057 218.658C424.466 221.393 431.145 205.293 431.145 205.293L433.573 200.432L438.434 199.828Z" fill="#FBBEBE"/>
<path opacity="0.1" d="M405.94 146.072L403.512 150.022C403.512 150.022 405.637 163.689 405.94 166.117C406.2 167.865 406.606 169.589 407.153 171.27C407.153 171.27 407.456 178.559 407.456 181.289C407.456 184.02 408.992 188.579 408.992 188.579C409.205 191.161 409.721 193.709 410.529 196.17C411.743 199.515 412.962 203.459 412.962 203.459C412.962 203.459 414.498 199.208 420.553 205.585C421.23 204.897 421.609 203.969 421.609 203.004C421.609 202.038 421.23 201.111 420.553 200.422C420.553 200.422 418.729 192.226 418.729 187.974C418.729 183.723 415.39 163.386 415.39 163.386C415.39 163.386 413.228 140.299 405.94 146.072Z" fill="black"/>
<path d="M405.34 145.77L402.913 149.715C402.913 149.715 405.038 163.381 405.34 165.814C405.603 167.565 406.011 169.29 406.559 170.973C406.559 170.973 406.877 178.262 406.877 181.003C406.877 183.743 408.414 188.292 408.414 188.292C408.628 190.874 409.144 193.421 409.95 195.883C411.164 199.223 412.378 203.173 412.378 203.173C412.378 203.173 413.915 198.921 419.969 205.298C420.647 204.61 421.027 203.683 421.027 202.717C421.027 201.751 420.647 200.823 419.969 200.135C419.969 200.135 418.145 191.939 418.145 187.682C418.145 183.425 414.806 163.094 414.806 163.094C414.806 163.094 412.619 140.023 405.34 145.77Z" fill="#F2F2F2"/>
<path opacity="0.1" d="M445.415 143.639L446.951 145.447C446.951 145.447 448.744 155.79 444.795 168.847L443.581 180.695C443.581 180.695 441.456 190.715 441.148 193.148C440.841 195.581 440.846 195.878 440.242 196.79C440.056 197.003 439.953 197.276 439.953 197.558C439.953 197.841 440.056 198.114 440.242 198.327L438.418 205.012C438.418 205.012 435.683 201.672 430.223 205.923C430.223 205.923 428.686 203.49 429.921 201.364C431.155 199.239 431.135 198.327 430.833 197.722C430.53 197.118 432.046 194.075 432.046 193.471C432.046 192.866 434.172 178.892 434.172 178.892C434.172 178.892 435.084 165.225 435.996 160.671C436.554 157.869 436.538 151.62 436.446 147.225C436.349 142.651 441.886 140.166 445.154 143.388C445.241 143.455 445.328 143.547 445.415 143.639Z" fill="black"/>
<path d="M446.317 143.035L447.853 144.843C447.853 144.843 449.641 155.18 445.697 168.242L444.483 180.086C444.483 180.086 442.357 190.11 442.05 192.538C441.743 194.966 441.748 195.274 441.138 196.18C440.956 196.395 440.855 196.667 440.855 196.949C440.855 197.231 440.956 197.503 441.138 197.717L439.32 204.376C439.32 204.376 436.585 201.037 431.125 205.288C431.125 205.288 429.588 202.86 430.823 200.734C432.057 198.608 432.037 197.697 431.729 197.087C431.422 196.478 432.948 193.445 432.948 192.835C432.948 192.226 435.074 178.257 435.074 178.257C435.074 178.257 435.986 164.59 436.892 160.036C437.799 155.482 437.2 141.816 437.2 141.816C437.2 141.816 442.076 138.486 446.317 143.035Z" fill="#F2F2F2"/>
<path d="M425.982 138.783C432.692 138.783 438.132 133.343 438.132 126.633C438.132 119.922 432.692 114.482 425.982 114.482C419.272 114.482 413.833 119.922 413.833 126.633C413.833 133.343 419.272 138.783 425.982 138.783Z" fill="#FBBEBE"/>
<path opacity="0.1" d="M432.318 108.392C431.734 110.022 430.666 111.435 429.257 112.442C427.848 113.449 426.165 114.002 424.434 114.026C422.702 114.051 421.005 113.546 419.568 112.579C418.131 111.612 417.024 110.23 416.394 108.617C421.131 106.711 425.982 108.412 425.982 108.412C428.389 107.557 430.5 107.639 432.318 108.392Z" fill="black"/>
<path d="M425.982 109.022C425.982 109.022 402.6 100.826 408.368 140.607C408.368 140.607 413.531 143.947 417.48 141.821C417.48 141.821 414.745 114.159 425.373 115.399C436.001 116.639 434.183 141.211 434.183 141.211C434.183 141.211 440.257 143.035 442.076 139.674C443.894 136.314 441.471 103.551 425.982 109.022Z" fill="#FF6584"/>
<path opacity="0.1" d="M425.373 113.575C418.079 112.74 417.08 125.49 417.177 133.579C417.27 125.542 418.622 114.626 425.373 115.399C432.963 116.265 434.203 129.05 434.295 136.294C434.377 129.65 433.65 114.523 425.373 113.575Z" fill="black"/>
<path opacity="0.1" d="M408.368 138.783C407.84 135.292 407.537 131.771 407.461 128.241C407.436 132.374 407.739 136.502 408.368 140.586C408.368 140.586 413.531 143.926 417.48 141.8C417.48 141.8 417.413 141.145 417.341 140.043C413.413 142.072 408.368 138.783 408.368 138.783Z" fill="black"/>
<path opacity="0.1" d="M442.076 137.871C440.38 140.981 434.997 139.618 434.265 139.408C434.229 140.535 434.183 141.206 434.183 141.206C434.183 141.206 440.257 143.03 442.076 139.669C442.455 138.978 442.649 137.036 442.588 134.439C442.537 136.135 442.357 137.354 442.076 137.871Z" fill="black"/>
<path d="M504.344 334.441C505.747 331.844 504.154 328.658 502.326 326.342C500.497 324.027 498.264 321.614 498.31 318.659C498.382 314.417 502.884 311.912 506.506 309.664C509.176 307.993 511.64 306.012 513.845 303.763C514.766 302.896 515.529 301.875 516.099 300.745C516.842 299.086 516.821 297.196 516.775 295.377C516.622 289.322 516.323 283.273 515.879 277.228" stroke="#3F3D56" stroke-width="4" stroke-miterlimit="10"/>
<path d="M522.691 276.9C522.64 275.791 522.311 274.713 521.734 273.765C521.156 272.817 520.349 272.03 519.387 271.476L517.907 274.406L517.953 270.856C517.245 270.649 516.508 270.561 515.771 270.595C514.464 270.656 513.204 271.103 512.151 271.88C511.098 272.657 510.299 273.729 509.855 274.96C509.411 276.192 509.342 277.527 509.657 278.797C509.972 280.068 510.656 281.216 511.623 282.098C512.591 282.979 513.797 283.554 515.091 283.75C516.385 283.945 517.708 283.753 518.893 283.196C520.078 282.64 521.071 281.745 521.747 280.624C522.423 279.504 522.751 278.208 522.691 276.9Z" fill="#6C63FF"/>
<path d="M510.89 321.696C510.223 322.991 509.147 324.03 507.829 324.651C506.511 325.272 505.026 325.441 503.602 325.132C502.179 324.823 500.897 324.052 499.956 322.94C499.015 321.828 498.467 320.437 498.397 318.981C498.35 318.065 498.497 317.148 498.828 316.292C499.311 315.038 500.165 313.961 501.276 313.204C502.386 312.446 503.701 312.045 505.045 312.053C506.389 312.061 507.699 312.477 508.8 313.247C509.902 314.017 510.743 315.104 511.213 316.364L507.079 319.729L511.622 318.674C511.624 319.726 511.373 320.762 510.89 321.696Z" fill="#6C63FF"/>
<path d="M507.622 308.844C506.753 308.885 505.886 308.754 505.068 308.459C504.25 308.164 503.498 307.711 502.856 307.125C502.213 306.54 501.692 305.833 501.323 305.046C500.953 304.259 500.742 303.407 500.702 302.538C500.652 301.503 500.848 300.471 501.276 299.526C501.674 298.643 502.26 297.857 502.994 297.223C503.727 296.59 504.59 296.124 505.522 295.859L505.491 298.589L506.987 295.618C508.74 295.537 510.453 296.156 511.75 297.339C513.047 298.521 513.82 300.17 513.901 301.924C513.941 302.687 513.846 303.452 513.62 304.183C513.22 305.482 512.429 306.626 511.356 307.46C510.283 308.294 508.979 308.777 507.622 308.844Z" fill="#6C63FF"/>
<path d="M523.69 298.154C522.821 298.194 521.953 298.063 521.135 297.768C520.318 297.473 519.566 297.02 518.923 296.435C518.281 295.849 517.76 295.142 517.39 294.355C517.021 293.568 516.81 292.716 516.77 291.848C516.714 290.767 516.929 289.69 517.395 288.713C517.782 287.891 518.334 287.159 519.017 286.56C519.7 285.961 520.499 285.51 521.364 285.234C522.229 284.957 523.141 284.862 524.045 284.954C524.948 285.046 525.823 285.323 526.614 285.767L525.447 288.969L527.849 286.659C529.138 287.839 529.908 289.482 529.99 291.228C530.02 291.841 529.963 292.455 529.821 293.052C529.493 294.453 528.716 295.709 527.61 296.63C526.504 297.551 525.127 298.086 523.69 298.154Z" fill="#6C63FF"/>
<path opacity="0.1" d="M521.805 278.662C520.268 278.832 518.788 279.303 517.256 279.4C515.725 279.497 514.04 279.129 513.072 277.935C512.621 277.243 512.212 276.525 511.848 275.784C511.429 275.132 510.858 274.592 510.183 274.211C509.66 275.231 509.415 276.37 509.471 277.515C509.543 279.122 510.198 280.648 511.314 281.808C512.429 282.967 513.929 283.68 515.532 283.814C517.135 283.948 518.732 283.493 520.024 282.534C521.317 281.576 522.215 280.179 522.553 278.606C522.302 278.616 522.051 278.637 521.805 278.662Z" fill="black"/>
<path opacity="0.1" d="M523.69 298.154C522.821 298.194 521.953 298.063 521.136 297.768C520.318 297.473 519.566 297.02 518.923 296.435C518.281 295.849 517.76 295.142 517.39 294.355C517.021 293.568 516.81 292.716 516.77 291.848C516.714 290.767 516.929 289.69 517.395 288.713C517.92 289.067 518.372 289.519 518.726 290.045C519.198 290.757 519.479 291.581 520.038 292.232C521.062 293.441 522.829 293.84 524.427 293.769C526.025 293.697 527.562 293.256 529.155 293.098C529.375 293.098 529.6 293.062 529.821 293.057C529.492 294.457 528.715 295.712 527.609 296.632C526.503 297.552 525.127 298.086 523.69 298.154Z" fill="black"/>
<path opacity="0.1" d="M507.622 308.844C506.753 308.885 505.886 308.754 505.068 308.459C504.25 308.164 503.498 307.711 502.856 307.125C502.213 306.54 501.692 305.833 501.323 305.046C500.953 304.259 500.742 303.407 500.702 302.538C500.652 301.503 500.848 300.471 501.276 299.526C501.813 299.888 502.281 300.343 502.659 300.868C503.171 301.596 503.494 302.405 504.093 303.102C505.209 304.347 507.089 304.782 508.779 304.746C510.47 304.71 511.996 304.306 513.625 304.183C513.224 305.482 512.433 306.627 511.359 307.461C510.285 308.295 508.98 308.778 507.622 308.844Z" fill="black"/>
<path opacity="0.1" d="M510.89 321.696C510.223 322.991 509.147 324.03 507.829 324.651C506.511 325.272 505.026 325.441 503.602 325.132C502.179 324.823 500.897 324.052 499.956 322.94C499.015 321.828 498.467 320.437 498.397 318.981C498.35 318.065 498.497 317.148 498.828 316.292C499.372 316.651 499.86 317.088 500.277 317.588C500.907 318.357 501.301 319.227 502.049 319.939C503.402 321.271 505.589 321.819 507.53 321.871C508.652 321.877 509.774 321.819 510.89 321.696Z" fill="black"/>
<path d="M494.366 331.45C494.366 331.45 499.585 331.291 501.163 330.169C502.741 329.047 509.194 327.71 509.589 329.508C509.983 331.306 517.436 338.452 511.54 338.498C505.645 338.544 497.839 337.581 496.266 336.623C494.694 335.665 494.366 331.45 494.366 331.45Z" fill="#656380"/>
<path opacity="0.2" d="M511.643 337.873C505.747 337.919 497.941 336.951 496.369 335.998C495.175 335.266 494.699 332.653 494.54 331.444H494.366C494.366 331.444 494.694 335.66 496.266 336.618C497.839 337.576 505.645 338.539 511.54 338.493C513.241 338.493 513.83 337.873 513.799 336.956C513.563 337.525 512.903 337.863 511.643 337.873Z" fill="black"/>
</g>
<defs>
<clipPath id="clip0">
<rect width="530" height="362" fill="white"/>
</clipPath>
</defs>
</svg>
