<svg width="1218" height="675" viewBox="0 0 1218 675" fill="none" xmlns="http://www.w3.org/2000/svg">
<rect width="1218" height="675" fill="white"/>
<g clip-path="url(#clip0)">
<path d="M972.225 363.292H906.484V349.072C906.484 348.17 906.126 347.305 905.488 346.667C904.85 346.029 903.985 345.67 903.083 345.67H883.778V330.523C883.778 329.955 883.553 329.411 883.151 329.009C882.75 328.608 882.205 328.382 881.637 328.382H856.77C856.202 328.382 855.658 328.608 855.256 329.009C854.855 329.411 854.629 329.955 854.629 330.523V345.676H831.933C831.031 345.676 830.166 346.034 829.528 346.672C828.891 347.31 828.532 348.175 828.532 349.077V363.297H765.844C765.662 363.298 765.487 363.372 765.358 363.501C765.23 363.631 765.158 363.806 765.158 363.988V552.757C765.158 552.939 765.23 553.114 765.358 553.244C765.487 553.373 765.662 553.447 765.844 553.448H807.506C807.69 553.448 807.866 553.375 807.995 553.246C808.125 553.116 808.198 552.94 808.198 552.757V527.359C808.199 527.176 808.273 527.001 808.402 526.872C808.531 526.742 808.706 526.669 808.889 526.668H826.489C826.672 526.669 826.847 526.742 826.976 526.872C827.106 527.001 827.179 527.176 827.18 527.359V552.757C827.18 552.939 827.252 553.114 827.381 553.244C827.509 553.373 827.684 553.447 827.866 553.448H910.193C910.376 553.447 910.551 553.374 910.68 553.244C910.809 553.115 910.883 552.94 910.884 552.757V527.359C910.884 527.177 910.956 527.002 911.085 526.872C911.213 526.743 911.388 526.669 911.57 526.668H929.17C929.353 526.668 929.529 526.741 929.659 526.87C929.788 527 929.861 527.176 929.861 527.359V552.757C929.862 552.94 929.936 553.115 930.065 553.244C930.194 553.374 930.37 553.447 930.553 553.448H972.215C972.398 553.447 972.573 553.374 972.702 553.244C972.832 553.115 972.905 552.94 972.906 552.757V363.983C972.905 363.802 972.833 363.628 972.706 363.499C972.579 363.37 972.406 363.296 972.225 363.292ZM800.74 517.847C800.74 518.029 800.668 518.204 800.539 518.332C800.411 518.461 800.236 518.533 800.054 518.533H774.321C774.23 518.534 774.141 518.517 774.057 518.483C773.973 518.448 773.897 518.398 773.832 518.334C773.768 518.27 773.717 518.194 773.682 518.111C773.647 518.027 773.63 517.938 773.63 517.847V509.082C773.63 508.992 773.647 508.902 773.682 508.818C773.717 508.734 773.768 508.658 773.832 508.593C773.896 508.529 773.972 508.478 774.056 508.444C774.14 508.409 774.23 508.391 774.321 508.391H800.069C800.252 508.392 800.426 508.466 800.555 508.595C800.684 508.725 800.756 508.9 800.756 509.082L800.74 517.847ZM800.74 495.134C800.741 495.225 800.724 495.314 800.69 495.398C800.655 495.482 800.605 495.558 800.541 495.623C800.477 495.687 800.401 495.738 800.318 495.773C800.234 495.808 800.145 495.825 800.054 495.825H774.321C774.23 495.826 774.14 495.809 774.056 495.774C773.971 495.74 773.895 495.689 773.831 495.624C773.766 495.56 773.715 495.484 773.681 495.399C773.646 495.315 773.629 495.225 773.63 495.134V486.349C773.629 486.258 773.646 486.168 773.681 486.083C773.715 485.999 773.766 485.923 773.831 485.858C773.895 485.794 773.971 485.743 774.056 485.709C774.14 485.674 774.23 485.657 774.321 485.657H800.069C800.16 485.657 800.25 485.675 800.333 485.71C800.417 485.745 800.493 485.796 800.556 485.86C800.62 485.925 800.671 486.001 800.705 486.085C800.739 486.169 800.756 486.258 800.756 486.349L800.74 495.134ZM800.74 472.426C800.74 472.609 800.668 472.784 800.54 472.913C800.411 473.043 800.236 473.116 800.054 473.118H774.321C774.23 473.118 774.14 473.1 774.056 473.065C773.972 473.03 773.896 472.979 773.832 472.915C773.768 472.851 773.717 472.775 773.682 472.691C773.647 472.607 773.63 472.517 773.63 472.426V463.636C773.63 463.545 773.647 463.455 773.682 463.371C773.717 463.287 773.768 463.211 773.832 463.147C773.896 463.083 773.972 463.032 774.056 462.997C774.14 462.962 774.23 462.944 774.321 462.944H800.069C800.252 462.946 800.426 463.019 800.555 463.149C800.684 463.278 800.756 463.453 800.756 463.636L800.74 472.426ZM800.74 449.713C800.741 449.804 800.724 449.893 800.69 449.977C800.655 450.061 800.605 450.137 800.541 450.202C800.477 450.266 800.401 450.317 800.318 450.352C800.234 450.387 800.145 450.405 800.054 450.405H774.321C774.23 450.405 774.14 450.388 774.056 450.353C773.971 450.319 773.895 450.268 773.831 450.203C773.766 450.139 773.715 450.063 773.681 449.978C773.646 449.894 773.629 449.804 773.63 449.713V440.954C773.629 440.863 773.646 440.772 773.681 440.688C773.715 440.604 773.766 440.527 773.831 440.463C773.895 440.399 773.971 440.348 774.056 440.313C774.14 440.279 774.23 440.261 774.321 440.262H800.069C800.16 440.262 800.25 440.28 800.333 440.315C800.417 440.35 800.493 440.401 800.556 440.465C800.62 440.529 800.671 440.605 800.705 440.689C800.739 440.773 800.756 440.863 800.756 440.954L800.74 449.713ZM800.74 427.005C800.74 427.188 800.668 427.363 800.54 427.492C800.411 427.622 800.236 427.695 800.054 427.697H774.321C774.23 427.697 774.14 427.679 774.056 427.644C773.972 427.609 773.896 427.558 773.832 427.494C773.768 427.43 773.717 427.354 773.682 427.27C773.647 427.186 773.63 427.096 773.63 427.005V418.215C773.63 418.124 773.647 418.035 773.682 417.951C773.717 417.867 773.768 417.792 773.832 417.728C773.897 417.664 773.973 417.613 774.057 417.579C774.141 417.545 774.23 417.528 774.321 417.528H800.069C800.251 417.528 800.426 417.601 800.555 417.73C800.683 417.858 800.756 418.033 800.756 418.215L800.74 427.005ZM800.74 404.297C800.74 404.479 800.668 404.654 800.539 404.782C800.411 404.911 800.236 404.984 800.054 404.984H774.321C774.23 404.984 774.141 404.967 774.057 404.933C773.973 404.899 773.897 404.848 773.832 404.784C773.768 404.721 773.717 404.645 773.682 404.561C773.647 404.477 773.63 404.388 773.63 404.297V395.507C773.63 395.416 773.647 395.326 773.682 395.242C773.717 395.158 773.768 395.082 773.832 395.018C773.896 394.954 773.972 394.903 774.056 394.868C774.14 394.833 774.23 394.815 774.321 394.815H800.069C800.252 394.817 800.426 394.89 800.555 395.02C800.684 395.149 800.756 395.324 800.756 395.507L800.74 404.297ZM800.74 381.584C800.741 381.675 800.724 381.764 800.69 381.848C800.655 381.932 800.605 382.008 800.541 382.073C800.477 382.137 800.401 382.188 800.318 382.223C800.234 382.258 800.145 382.276 800.054 382.276H774.321C774.23 382.276 774.14 382.259 774.056 382.224C773.971 382.19 773.895 382.139 773.831 382.075C773.766 382.01 773.715 381.934 773.681 381.85C773.646 381.765 773.629 381.675 773.63 381.584V372.825C773.629 372.734 773.646 372.643 773.681 372.559C773.715 372.475 773.766 372.398 773.831 372.334C773.895 372.27 773.971 372.219 774.056 372.184C774.14 372.15 774.23 372.132 774.321 372.133H800.069C800.16 372.133 800.25 372.151 800.333 372.186C800.417 372.221 800.493 372.272 800.556 372.336C800.62 372.4 800.671 372.477 800.705 372.56C800.739 372.644 800.756 372.734 800.756 372.825L800.74 381.584ZM861.749 517.842C861.749 517.932 861.731 518.022 861.696 518.106C861.661 518.189 861.61 518.265 861.546 518.329C861.481 518.393 861.405 518.443 861.321 518.477C861.237 518.512 861.148 518.529 861.057 518.528H835.324C835.142 518.528 834.967 518.456 834.837 518.328C834.707 518.199 834.634 518.024 834.633 517.842V509.082C834.634 508.899 834.707 508.724 834.837 508.595C834.966 508.466 835.141 508.392 835.324 508.391H861.057C861.148 508.391 861.238 508.409 861.322 508.444C861.406 508.478 861.482 508.529 861.546 508.593C861.61 508.658 861.661 508.734 861.696 508.818C861.731 508.902 861.749 508.992 861.749 509.082V517.842ZM861.749 495.129C861.749 495.22 861.732 495.31 861.697 495.394C861.663 495.478 861.612 495.555 861.548 495.619C861.483 495.684 861.407 495.735 861.323 495.769C861.238 495.804 861.148 495.821 861.057 495.82H835.324C835.141 495.82 834.965 495.747 834.835 495.618C834.706 495.488 834.633 495.312 834.633 495.129V486.349C834.633 486.165 834.706 485.99 834.835 485.86C834.965 485.73 835.141 485.657 835.324 485.657H861.057C861.148 485.657 861.238 485.674 861.323 485.709C861.407 485.743 861.483 485.794 861.548 485.858C861.612 485.923 861.663 485.999 861.697 486.083C861.732 486.168 861.749 486.258 861.749 486.349V495.129ZM861.749 472.421C861.749 472.512 861.731 472.602 861.696 472.686C861.661 472.769 861.61 472.846 861.546 472.91C861.482 472.974 861.406 473.025 861.322 473.06C861.238 473.095 861.148 473.112 861.057 473.112H835.324C835.141 473.111 834.966 473.038 834.837 472.908C834.707 472.779 834.634 472.604 834.633 472.421V463.636C834.634 463.453 834.707 463.278 834.837 463.148C834.966 463.019 835.141 462.946 835.324 462.944H861.057C861.148 462.944 861.238 462.962 861.322 462.997C861.406 463.032 861.482 463.083 861.546 463.147C861.61 463.211 861.661 463.287 861.696 463.371C861.731 463.455 861.749 463.545 861.749 463.636V472.421ZM861.749 449.708C861.749 449.799 861.732 449.889 861.697 449.973C861.663 450.057 861.612 450.134 861.548 450.198C861.483 450.263 861.407 450.314 861.323 450.348C861.238 450.383 861.148 450.4 861.057 450.399H835.324C835.141 450.399 834.965 450.327 834.835 450.197C834.706 450.067 834.633 449.891 834.633 449.708V440.954C834.633 440.77 834.706 440.594 834.835 440.465C834.965 440.335 835.141 440.262 835.324 440.262H861.057C861.148 440.261 861.238 440.279 861.323 440.313C861.407 440.348 861.483 440.399 861.548 440.463C861.612 440.527 861.663 440.604 861.697 440.688C861.732 440.772 861.749 440.863 861.749 440.954V449.708ZM861.749 427C861.749 427.091 861.731 427.181 861.696 427.265C861.661 427.348 861.61 427.425 861.546 427.489C861.482 427.553 861.406 427.604 861.322 427.639C861.238 427.674 861.148 427.691 861.057 427.691H835.324C835.141 427.69 834.966 427.617 834.837 427.487C834.707 427.358 834.634 427.183 834.633 427V418.215C834.634 418.032 834.707 417.858 834.837 417.729C834.967 417.601 835.142 417.528 835.324 417.528H861.057C861.148 417.528 861.237 417.545 861.321 417.579C861.405 417.613 861.481 417.664 861.546 417.728C861.61 417.792 861.661 417.867 861.696 417.951C861.731 418.035 861.749 418.124 861.749 418.215V427ZM861.749 404.292C861.749 404.383 861.731 404.472 861.696 404.556C861.661 404.639 861.61 404.715 861.546 404.779C861.481 404.843 861.405 404.893 861.321 404.928C861.237 404.962 861.148 404.979 861.057 404.978H835.324C835.142 404.978 834.967 404.906 834.837 404.778C834.707 404.649 834.634 404.475 834.633 404.292V395.507C834.634 395.324 834.707 395.149 834.837 395.019C834.966 394.89 835.141 394.817 835.324 394.815H861.057C861.148 394.815 861.238 394.833 861.322 394.868C861.406 394.903 861.482 394.954 861.546 395.018C861.61 395.082 861.661 395.158 861.696 395.242C861.731 395.326 861.749 395.416 861.749 395.507V404.292ZM861.749 381.579C861.749 381.67 861.732 381.76 861.697 381.844C861.663 381.929 861.612 382.005 861.548 382.069C861.483 382.134 861.407 382.185 861.323 382.219C861.238 382.254 861.148 382.271 861.057 382.27H835.324C835.141 382.27 834.965 382.198 834.835 382.068C834.706 381.938 834.633 381.762 834.633 381.579V372.825C834.633 372.641 834.706 372.465 834.835 372.336C834.965 372.206 835.141 372.133 835.324 372.133H861.057C861.148 372.132 861.238 372.15 861.323 372.184C861.407 372.219 861.483 372.27 861.548 372.334C861.612 372.398 861.663 372.475 861.697 372.559C861.732 372.643 861.749 372.734 861.749 372.825V381.579ZM903.437 517.837C903.437 517.927 903.419 518.017 903.384 518.101C903.349 518.184 903.298 518.26 903.234 518.324C903.17 518.388 903.093 518.438 903.009 518.472C902.926 518.507 902.836 518.524 902.745 518.523H877.012C876.83 518.523 876.655 518.451 876.525 518.322C876.396 518.194 876.322 518.019 876.321 517.837V509.082C876.322 508.899 876.395 508.724 876.525 508.595C876.654 508.466 876.829 508.392 877.012 508.391H902.745C902.929 508.391 903.104 508.464 903.234 508.593C903.364 508.723 903.437 508.899 903.437 509.082V517.837ZM903.437 495.124C903.437 495.215 903.42 495.305 903.385 495.389C903.351 495.473 903.3 495.55 903.236 495.614C903.171 495.679 903.095 495.729 903.011 495.764C902.926 495.798 902.836 495.816 902.745 495.815H877.012C876.829 495.815 876.653 495.742 876.523 495.613C876.394 495.483 876.321 495.307 876.321 495.124V486.349C876.321 486.165 876.394 485.99 876.523 485.86C876.653 485.73 876.829 485.657 877.012 485.657H902.745C902.836 485.657 902.926 485.674 903.011 485.709C903.095 485.743 903.171 485.794 903.236 485.858C903.3 485.923 903.351 485.999 903.385 486.083C903.42 486.168 903.437 486.258 903.437 486.349V495.124ZM903.437 472.416C903.437 472.599 903.364 472.775 903.234 472.905C903.104 473.034 902.929 473.107 902.745 473.107H877.012C876.829 473.106 876.654 473.033 876.525 472.903C876.395 472.774 876.322 472.599 876.321 472.416V463.636C876.322 463.453 876.395 463.278 876.525 463.148C876.654 463.019 876.829 462.946 877.012 462.944H902.745C902.929 462.944 903.104 463.017 903.234 463.147C903.364 463.277 903.437 463.452 903.437 463.636V472.416ZM903.437 449.703C903.437 449.794 903.42 449.884 903.385 449.968C903.351 450.052 903.3 450.129 903.236 450.193C903.171 450.258 903.095 450.308 903.011 450.343C902.926 450.378 902.836 450.395 902.745 450.394H877.012C876.829 450.394 876.653 450.321 876.523 450.192C876.394 450.062 876.321 449.886 876.321 449.703V440.954C876.321 440.77 876.394 440.594 876.523 440.465C876.653 440.335 876.829 440.262 877.012 440.262H902.745C902.836 440.261 902.926 440.279 903.011 440.313C903.095 440.348 903.171 440.399 903.236 440.463C903.3 440.527 903.351 440.604 903.385 440.688C903.42 440.772 903.437 440.863 903.437 440.954V449.703ZM903.437 426.995C903.437 427.178 903.364 427.354 903.234 427.484C903.104 427.613 902.929 427.686 902.745 427.686H877.012C876.829 427.685 876.654 427.612 876.525 427.482C876.395 427.353 876.322 427.178 876.321 426.995V418.215C876.322 418.032 876.396 417.858 876.525 417.729C876.655 417.601 876.83 417.528 877.012 417.528H902.745C902.836 417.528 902.926 417.545 903.009 417.579C903.093 417.613 903.17 417.664 903.234 417.728C903.298 417.792 903.349 417.867 903.384 417.951C903.419 418.035 903.437 418.124 903.437 418.215V426.995ZM903.437 404.287C903.437 404.377 903.419 404.467 903.384 404.551C903.349 404.634 903.298 404.71 903.234 404.774C903.17 404.838 903.093 404.888 903.009 404.923C902.926 404.957 902.836 404.974 902.745 404.973H877.012C876.83 404.973 876.655 404.901 876.525 404.773C876.396 404.644 876.322 404.469 876.321 404.287V395.507C876.322 395.324 876.395 395.149 876.525 395.019C876.654 394.89 876.829 394.817 877.012 394.815H902.745C902.929 394.815 903.104 394.888 903.234 395.018C903.364 395.148 903.437 395.324 903.437 395.507V404.287ZM903.437 381.574C903.437 381.665 903.42 381.755 903.385 381.839C903.351 381.923 903.3 382 903.236 382.064C903.171 382.129 903.095 382.18 903.011 382.214C902.926 382.249 902.836 382.266 902.745 382.265H877.012C876.829 382.265 876.653 382.193 876.523 382.063C876.394 381.933 876.321 381.757 876.321 381.574V372.825C876.321 372.641 876.394 372.465 876.523 372.336C876.653 372.206 876.829 372.133 877.012 372.133H902.745C902.836 372.132 902.926 372.15 903.011 372.184C903.095 372.219 903.171 372.27 903.236 372.334C903.3 372.398 903.351 372.475 903.385 372.559C903.42 372.643 903.437 372.734 903.437 372.825V381.574ZM964.445 517.832C964.444 518.014 964.37 518.189 964.241 518.317C964.111 518.446 963.936 518.518 963.753 518.518H938.02C937.93 518.519 937.84 518.501 937.756 518.467C937.672 518.433 937.596 518.383 937.532 518.319C937.468 518.255 937.417 518.179 937.382 518.095C937.347 518.012 937.329 517.922 937.329 517.832V509.082C937.329 508.899 937.402 508.723 937.532 508.593C937.661 508.464 937.837 508.391 938.02 508.391H963.753C963.936 508.392 964.112 508.466 964.241 508.595C964.37 508.724 964.444 508.899 964.445 509.082V517.832ZM964.445 495.119C964.445 495.302 964.372 495.478 964.242 495.608C964.113 495.737 963.937 495.81 963.753 495.81H938.02C937.929 495.811 937.839 495.793 937.755 495.759C937.671 495.724 937.594 495.673 937.53 495.609C937.466 495.545 937.415 495.468 937.38 495.384C937.346 495.3 937.328 495.21 937.329 495.119V486.349C937.328 486.258 937.346 486.168 937.38 486.083C937.415 485.999 937.466 485.923 937.53 485.858C937.594 485.794 937.671 485.743 937.755 485.709C937.839 485.674 937.929 485.657 938.02 485.657H963.753C963.937 485.657 964.113 485.73 964.242 485.86C964.372 485.99 964.445 486.165 964.445 486.349V495.119ZM964.445 472.411C964.444 472.594 964.37 472.769 964.241 472.898C964.112 473.028 963.936 473.101 963.753 473.102H938.02C937.837 473.102 937.661 473.029 937.532 472.9C937.402 472.77 937.329 472.594 937.329 472.411V463.636C937.329 463.452 937.402 463.277 937.532 463.147C937.661 463.017 937.837 462.944 938.02 462.944H963.753C963.936 462.946 964.112 463.019 964.241 463.148C964.37 463.278 964.444 463.453 964.445 463.636V472.411ZM964.445 449.698C964.445 449.881 964.372 450.057 964.242 450.187C964.113 450.316 963.937 450.389 963.753 450.389H938.02C937.841 450.388 937.669 450.316 937.542 450.19C937.415 450.064 937.342 449.892 937.339 449.713V440.954C937.339 440.863 937.356 440.772 937.39 440.688C937.425 440.604 937.476 440.527 937.54 440.463C937.605 440.399 937.681 440.348 937.765 440.313C937.849 440.279 937.94 440.261 938.031 440.262H963.764C963.947 440.262 964.123 440.335 964.253 440.465C964.382 440.594 964.455 440.77 964.455 440.954L964.445 449.698ZM964.445 426.99C964.444 427.173 964.37 427.348 964.241 427.477C964.112 427.607 963.936 427.68 963.753 427.681H938.02C937.837 427.681 937.661 427.608 937.532 427.479C937.402 427.349 937.329 427.173 937.329 426.99V418.215C937.329 418.124 937.347 418.035 937.382 417.951C937.417 417.867 937.468 417.792 937.532 417.728C937.596 417.664 937.672 417.613 937.756 417.579C937.84 417.545 937.93 417.528 938.02 417.528H963.753C963.936 417.528 964.111 417.601 964.241 417.729C964.37 417.858 964.444 418.032 964.445 418.215V426.99ZM964.445 404.282C964.444 404.464 964.37 404.639 964.241 404.767C964.111 404.896 963.936 404.968 963.753 404.968H938.02C937.93 404.969 937.84 404.952 937.756 404.917C937.672 404.883 937.596 404.833 937.532 404.769C937.468 404.705 937.417 404.629 937.382 404.546C937.347 404.462 937.329 404.372 937.329 404.282V395.507C937.329 395.324 937.402 395.148 937.532 395.018C937.661 394.888 937.837 394.815 938.02 394.815H963.753C963.936 394.817 964.112 394.89 964.241 395.019C964.37 395.149 964.444 395.324 964.445 395.507V404.282ZM964.445 381.569C964.445 381.66 964.427 381.749 964.392 381.833C964.358 381.917 964.307 381.993 964.242 382.058C964.178 382.122 964.102 382.173 964.018 382.208C963.934 382.242 963.844 382.26 963.753 382.26H938.02C937.841 382.259 937.669 382.187 937.542 382.061C937.415 381.935 937.342 381.763 937.339 381.584V372.825C937.339 372.734 937.356 372.643 937.39 372.559C937.425 372.475 937.476 372.398 937.54 372.334C937.605 372.27 937.681 372.219 937.765 372.184C937.849 372.15 937.94 372.132 938.031 372.133H963.764C963.947 372.133 964.123 372.206 964.253 372.336C964.382 372.465 964.455 372.641 964.455 372.825L964.445 381.569Z" fill="#F2F2F2"/>
<path d="M773.835 284.662L765.885 289.702L770.71 280.922C769.344 279.832 767.653 279.228 765.906 279.206H765.778C765.225 279.215 764.673 279.174 764.128 279.083L761.434 280.789L762.587 278.689C760.676 278.023 759.026 276.767 757.874 275.103L753.055 278.177L756.097 272.639C753.28 269.253 749.479 267.179 745.295 267.179C740.28 267.179 735.814 270.16 732.93 274.806C732.077 276.201 730.869 277.344 729.429 278.119C727.989 278.893 726.369 279.27 724.735 279.212H724.469C718.932 279.212 714.445 285.492 714.445 293.232C714.445 300.972 718.952 307.257 724.489 307.257C725.705 307.251 726.902 306.95 727.977 306.381C729.862 305.464 731.923 304.968 734.018 304.927C736.114 304.887 738.193 305.302 740.111 306.145C741.734 306.871 743.491 307.247 745.269 307.247C747.047 307.247 748.804 306.871 750.427 306.145C752.33 305.32 754.389 304.914 756.463 304.954C758.538 304.995 760.579 305.482 762.448 306.381C763.514 306.945 764.7 307.246 765.906 307.257C771.443 307.257 775.929 300.977 775.929 293.232C775.962 290.244 775.242 287.297 773.835 284.662Z" fill="#F2F2F2"/>
<path opacity="0.03" d="M758.853 305.177C755.96 304.627 752.97 304.951 750.263 306.11C748.641 306.834 746.884 307.208 745.108 307.208C743.331 307.208 741.575 306.834 739.952 306.11C738.033 305.269 735.954 304.855 733.86 304.895C731.765 304.936 729.704 305.431 727.818 306.345C726.743 306.917 725.544 307.218 724.325 307.221C719.408 307.221 715.316 302.268 714.465 295.731C715.448 295.014 716.283 294.113 716.924 293.078C719.808 288.432 724.274 285.451 729.288 285.451C734.303 285.451 738.713 288.396 741.581 292.996C742.44 294.385 743.644 295.529 745.076 296.315C746.507 297.101 748.118 297.504 749.751 297.483H749.879C753.813 297.458 757.203 300.598 758.853 305.177Z" fill="black"/>
<path d="M1054 270.724L1050.02 273.239L1052.43 268.859C1051.75 268.316 1050.91 268.015 1050.03 268.004H1049.97C1049.7 268.009 1049.42 267.988 1049.15 267.942L1047.81 268.798L1048.38 267.773C1047.43 267.44 1046.61 266.816 1046.03 265.99L1043.63 267.527L1045.16 264.766C1044.53 263.933 1043.72 263.252 1042.78 262.773C1041.85 262.295 1040.83 262.03 1039.78 262C1037.28 262 1035.05 263.491 1033.63 265.806C1033.21 266.503 1032.6 267.073 1031.88 267.459C1031.16 267.845 1030.35 268.033 1029.54 268.004H1029.4C1026.64 268.004 1024.4 271.133 1024.4 274.996C1024.4 278.858 1026.64 281.988 1029.4 281.988C1030.01 281.986 1030.61 281.837 1031.14 281.552C1032.08 281.096 1033.11 280.849 1034.16 280.828C1035.2 280.808 1036.24 281.015 1037.19 281.435C1038 281.796 1038.88 281.983 1039.77 281.983C1040.65 281.983 1041.53 281.796 1042.34 281.435C1043.29 281.024 1044.32 280.821 1045.35 280.842C1046.39 280.862 1047.41 281.104 1048.34 281.552C1048.87 281.83 1049.46 281.976 1050.06 281.978C1052.82 281.978 1055.06 278.848 1055.06 274.985C1055.07 273.499 1054.7 272.033 1054 270.724V270.724Z" fill="#F2F2F2"/>
<path opacity="0.03" d="M1046.53 280.953C1045.08 280.682 1043.59 280.844 1042.24 281.419C1041.43 281.778 1040.56 281.963 1039.68 281.962C1038.79 281.958 1037.92 281.769 1037.12 281.409C1036.16 280.989 1035.12 280.782 1034.08 280.803C1033.03 280.823 1032 281.07 1031.06 281.527C1030.53 281.811 1029.93 281.961 1029.32 281.962C1026.87 281.962 1024.83 279.493 1024.4 276.23C1024.89 275.872 1025.31 275.424 1025.63 274.909C1027.07 272.593 1029.29 271.103 1031.78 271.103C1034.26 271.103 1036.48 272.573 1037.93 274.868C1038.36 275.564 1038.96 276.136 1039.68 276.529C1040.4 276.921 1041.2 277.12 1042.02 277.106H1042.09C1044.01 277.106 1045.7 278.674 1046.53 280.953Z" fill="black"/>
<path d="M954.472 316.79L949.811 319.746L952.639 314.623C951.84 313.977 950.849 313.617 949.822 313.599H949.745C949.421 313.603 949.097 313.579 948.777 313.527L947.199 314.551L947.875 313.317C946.756 312.927 945.788 312.194 945.109 311.222L942.282 313.015L944.07 309.767C943.318 308.796 942.359 308.004 941.263 307.449C940.167 306.895 938.962 306.591 937.734 306.56C934.794 306.56 932.171 308.312 930.481 311.037C929.979 311.85 929.271 312.514 928.429 312.964C927.587 313.414 926.641 313.633 925.687 313.599H925.528C922.281 313.599 919.653 317.282 919.653 321.795C919.653 326.308 922.281 330.016 925.528 330.016C926.242 330.015 926.946 329.839 927.577 329.504C928.682 328.967 929.89 328.677 931.119 328.653C932.347 328.629 933.566 328.872 934.691 329.366C935.643 329.79 936.674 330.009 937.716 330.009C938.758 330.009 939.788 329.79 940.74 329.366C941.857 328.882 943.065 328.644 944.282 328.668C945.499 328.692 946.696 328.977 947.793 329.504C948.425 329.837 949.128 330.013 949.842 330.016C953.09 330.016 955.722 326.338 955.722 321.795C955.73 320.048 955.301 318.328 954.472 316.79V316.79Z" fill="#F2F2F2"/>
<path opacity="0.03" d="M945.688 328.823C943.991 328.501 942.237 328.692 940.648 329.371C939.696 329.795 938.666 330.014 937.624 330.014C936.582 330.014 935.551 329.795 934.599 329.371C933.474 328.877 932.255 328.634 931.027 328.658C929.798 328.682 928.59 328.972 927.485 329.509C926.853 329.844 926.15 330.019 925.436 330.021C922.552 330.021 920.15 327.117 919.653 323.285C920.227 322.87 920.716 322.349 921.092 321.749C922.783 319.023 925.405 317.277 928.345 317.277C931.285 317.277 933.877 319.003 935.567 321.697C936.07 322.513 936.775 323.184 937.615 323.645C938.454 324.107 939.399 324.343 940.356 324.33H940.413C942.728 324.294 944.72 326.138 945.688 328.823Z" fill="black"/>
<path d="M1122.18 553.571C1122.18 554.452 1122.18 555.333 1122.13 556.204C1122 559.594 1121.59 562.967 1120.91 566.29C1117.54 582.739 1107.83 595.524 1095.62 599.299C1093.19 600.056 1090.66 600.441 1088.12 600.442C1069.31 600.442 1054.06 579.44 1054.06 553.571C1054.06 527.703 1069.31 506.701 1088.12 506.701C1105.77 506.701 1120.28 525.172 1122.01 548.833C1122.13 550.39 1122.18 551.973 1122.18 553.571Z" fill="#36334A"/>
<path opacity="0.1" d="M1122.13 556.209C1122 559.599 1121.59 562.972 1120.91 566.295C1117.54 582.744 1107.83 595.529 1095.62 599.305C1086.17 594.956 1079.16 578.656 1079.16 559.211C1079.16 536.436 1088.79 517.975 1100.67 517.975C1110.64 517.975 1119.03 530.996 1121.47 548.664C1121.8 551.087 1122.02 553.617 1122.13 556.209Z" fill="black"/>
<path d="M951.107 449.841C951.107 449.841 1043.3 430.888 1091.96 448.304C1091.96 448.304 1099.13 451.89 1091.96 458.037C1091.96 458.037 1098.74 465.208 1086.9 467.77L1039.86 470.664L951.107 461.623V449.841Z" fill="#3F3D56"/>
<path opacity="0.1" d="M967.242 452.223C967.242 452.223 1046.18 435.995 1087.84 450.907C1087.84 450.907 1093.99 453.98 1087.84 459.241C1087.84 459.241 1093.64 465.388 1083.51 467.575L1043.23 470.049L967.242 462.319V452.223Z" fill="black"/>
<path d="M1057.13 480.576L1050.99 468.282C1050.99 468.282 1053.68 455.845 1031.78 452.187C1030.56 446.762 1025.06 442.67 1018.46 442.67C1012.02 442.67 1006.63 446.563 1005.24 451.788C1002.09 452.059 998.742 452.428 995.156 452.914L990.147 479.777L989.522 478.527C989.522 478.527 992.703 463.836 964.035 461.689C965.598 459.795 966.459 457.419 966.473 454.963C966.473 448.453 960.393 443.182 952.9 443.182C945.406 443.182 939.327 448.453 939.327 454.963C939.346 457.638 940.362 460.209 942.174 462.176C939.494 462.432 936.666 462.76 933.692 463.159L928.058 493.382L954.18 496.968L995.669 490.821L991.996 483.47L1015.64 486.718L1057.13 480.576Z" fill="#6C63FF"/>
<path opacity="0.2" d="M1057.13 480.576L1050.99 468.282C1050.99 468.282 1053.68 455.845 1031.78 452.187C1030.56 446.762 1025.06 442.67 1018.46 442.67C1012.02 442.67 1006.63 446.563 1005.24 451.788C1002.09 452.059 998.742 452.428 995.156 452.914L990.147 479.777L989.522 478.527C989.522 478.527 992.703 463.836 964.035 461.689C965.598 459.795 966.459 457.419 966.473 454.963C966.473 448.453 960.393 443.182 952.9 443.182C945.406 443.182 939.327 448.453 939.327 454.963C939.346 457.638 940.362 460.209 942.174 462.176C939.494 462.432 936.666 462.76 933.692 463.159L928.058 493.382L954.18 496.968L995.669 490.821L991.996 483.47L1015.64 486.718L1057.13 480.576Z" fill="black"/>
<path d="M969.024 453.365C969.024 453.365 964.926 430.376 983.878 429.863C1002.83 429.351 996.683 463.16 996.683 463.16C996.683 463.16 1011.02 466.233 1012.05 471.868C1013.07 477.502 962.365 479.039 962.365 479.039L969.024 453.365Z" fill="#6C63FF"/>
<path d="M935.741 574.829C935.741 601.978 915.56 624.005 890.667 624.005C865.774 624.005 845.594 601.978 845.594 574.829C845.594 547.68 866.025 521.3 890.924 521.3C915.822 521.3 935.741 547.67 935.741 574.829Z" fill="#36334A"/>
<path opacity="0.1" d="M890.668 618.365C910.469 618.365 926.522 599.791 926.522 576.878C926.522 553.966 910.469 535.391 890.668 535.391C870.866 535.391 854.813 553.966 854.813 576.878C854.813 599.791 870.866 618.365 890.668 618.365Z" fill="black"/>
<path d="M692.446 619.39C717.339 619.39 737.519 597.373 737.519 570.214C737.519 543.055 717.339 521.038 692.446 521.038C667.552 521.038 647.372 543.055 647.372 570.214C647.372 597.373 667.552 619.39 692.446 619.39Z" fill="#36334A"/>
<path d="M769.276 452.915C769.276 452.915 748.276 453.939 749.3 465.208C750.324 476.478 767.227 468.282 767.227 468.282L769.276 452.915Z" fill="#36334A"/>
<path d="M943.998 471.688L952.644 413.984C952.644 413.984 954.693 406.812 927.034 406.812C927.034 406.812 838.423 401.178 815.886 410.398C815.886 410.398 789.764 420.131 753.398 470.331C753.398 470.331 940.413 474.762 943.998 471.688Z" fill="#3F3D56"/>
<path d="M940.863 411.422L924.985 474.429L915.028 474.188L867.905 473.041L762.807 470.479C762.515 465.5 812.285 413.984 812.285 413.984L940.863 411.422Z" fill="#36334A"/>
<path opacity="0.2" d="M867.921 473.041L872.213 456.444C872.213 456.444 868.115 433.449 887.067 432.937C906.018 432.425 899.872 466.233 899.872 466.233C899.872 466.233 912.933 469.035 915.012 474.188L867.921 473.041Z" fill="#6C63FF"/>
<path d="M1122.44 549.985C1119.37 520.275 1100.16 513.872 1100.16 513.872C1081.72 512.847 1069.43 583.025 1069.43 583.025L927.546 595.831C927.546 595.831 932.412 536.155 898.094 526.422C863.777 516.689 854.813 586.611 853.277 596.344C851.74 606.076 646.348 595.319 640.713 591.221C635.079 587.123 637.128 547.68 638.665 544.607C640.201 541.533 644.299 527.703 644.299 527.703C644.299 524.404 645.876 520.234 647.188 517.34C648.11 515.291 648.909 513.872 648.909 513.872C653.36 488.628 676.47 482.517 678.022 482.113H678.104C684.251 475.966 741.105 471.868 741.105 471.868L762.617 467.77L937.519 471.207L944.961 471.355L1033.88 467.078L1094.01 464.184C1107.84 464.184 1115.01 499.017 1115.01 499.017C1127.82 529.752 1122.44 549.985 1122.44 549.985Z" fill="#3F3D56"/>
<path opacity="0.1" d="M834.093 519.817C847.603 514.38 855.796 503.116 852.392 494.657C848.988 486.198 835.277 483.748 821.768 489.185C808.258 494.622 800.065 505.887 803.468 514.346C806.872 522.804 820.583 525.254 834.093 519.817Z" fill="black"/>
<path d="M833.069 517.766C846.579 512.329 854.772 501.065 851.368 492.606C847.965 484.147 834.254 481.697 820.744 487.134C807.234 492.571 799.041 503.836 802.445 512.294C805.848 520.753 819.559 523.203 833.069 517.766Z" fill="#F2F2F2"/>
<path opacity="0.1" d="M679.047 483.158C678.785 488.792 676.26 495.902 671.717 502.751C664.408 513.775 654.384 520.265 648.212 518.364C649.134 516.315 649.933 514.896 649.933 514.896C654.384 489.653 677.495 483.542 679.047 483.158Z" fill="black"/>
<path d="M677.51 482.133C677.249 487.768 674.724 494.878 670.18 501.727C662.871 512.75 652.848 519.24 646.676 517.34C647.597 515.291 648.397 513.872 648.397 513.872C652.848 488.628 675.958 482.517 677.51 482.133Z" fill="#F2F2F2"/>
<path d="M749.3 497.475H708.836L706.787 491.84H755.959L749.3 497.475Z" fill="#36334A"/>
<path d="M740.081 538.967H673.494V558.432H740.081V538.967Z" fill="#36334A"/>
<path opacity="0.1" d="M811.788 577.385C816.88 577.385 821.008 573.257 821.008 568.165C821.008 563.073 816.88 558.945 811.788 558.945C806.697 558.945 802.569 563.073 802.569 568.165C802.569 573.257 806.697 577.385 811.788 577.385Z" fill="black"/>
<path d="M810.764 575.849C815.856 575.849 819.984 571.721 819.984 566.628C819.984 561.536 815.856 557.408 810.764 557.408C805.672 557.408 801.545 561.536 801.545 566.628C801.545 571.721 805.672 575.849 810.764 575.849Z" fill="#F2F2F2"/>
<path opacity="0.1" d="M644.299 570.726C646.845 570.726 648.909 566.369 648.909 560.994C648.909 555.618 646.845 551.261 644.299 551.261C641.753 551.261 639.689 555.618 639.689 560.994C639.689 566.369 641.753 570.726 644.299 570.726Z" fill="black"/>
<path d="M642.762 570.214C645.308 570.214 647.372 565.857 647.372 560.481C647.372 555.106 645.308 550.749 642.762 550.749C640.216 550.749 638.152 555.106 638.152 560.481C638.152 565.857 640.216 570.214 642.762 570.214Z" fill="#F2F2F2"/>
<path d="M1048.94 519.507C1043.3 536.923 1042.79 564.072 1042.79 564.072L1040.74 571.244L940.863 582.513C940.863 582.513 941.375 532.313 942.912 508.749C943.993 492.127 939.982 478.056 937.519 471.207L944.961 471.355L1033.88 467.078C1048.73 477.492 1053.99 503.868 1048.94 519.507Z" fill="#36334A"/>
<path d="M1026.17 488.106C1025.82 488.129 1025.47 488.225 1025.16 488.388C1024.85 488.551 1024.58 488.777 1024.36 489.051C1024.14 489.326 1023.99 489.643 1023.9 489.982C1023.81 490.321 1023.79 490.675 1023.85 491.021C1023.9 491.31 1024.02 491.583 1024.2 491.817C1024.37 492.05 1024.61 492.235 1024.87 492.358C1026.53 493.182 1037.54 491.333 1041.72 490.595C1042.33 490.495 1042.9 490.193 1043.33 489.736C1043.76 489.279 1044.02 488.693 1044.08 488.07C1044.13 487.343 1043.87 486.723 1042.8 486.723L1026.17 488.106Z" fill="#F2F2F2"/>
<path d="M937.278 469.306C937.278 469.306 939.839 480.576 952.132 476.99L956.229 461.11L948.034 456.5L937.278 469.306Z" fill="#36334A"/>
<path d="M952.331 446.424C957.966 443.085 966.903 440.165 975.744 447.177C977.584 448.63 978.882 450.66 979.429 452.94C979.977 455.22 979.741 457.618 978.761 459.748C975.867 466.013 968.998 472.81 952.961 464.671C951.387 463.872 950.044 462.683 949.058 461.218L948.976 461.095C948.201 459.922 947.671 458.603 947.419 457.218C947.168 455.834 947.2 454.413 947.514 453.042C947.827 451.67 948.416 450.376 949.244 449.239C950.072 448.102 951.123 447.144 952.331 446.424V446.424Z" fill="#36334A"/>
<path d="M890.924 584.813C896.581 584.813 901.168 580.226 901.168 574.568C901.168 568.91 896.581 564.323 890.924 564.323C885.266 564.323 880.68 568.91 880.68 574.568C880.68 580.226 885.266 584.813 890.924 584.813Z" fill="#F2F2F2"/>
<path d="M1102.46 566.372C1105.57 566.372 1108.1 561.785 1108.1 556.127C1108.1 550.469 1105.57 545.882 1102.46 545.882C1099.35 545.882 1096.83 550.469 1096.83 556.127C1096.83 561.785 1099.35 566.372 1102.46 566.372Z" fill="#F2F2F2"/>
<path d="M891.18 543.065H890.155C886.761 543.065 884.009 545.817 884.009 549.212V554.847C884.009 558.242 886.761 560.994 890.155 560.994H891.18C894.574 560.994 897.326 558.242 897.326 554.847V549.212C897.326 545.817 894.574 543.065 891.18 543.065Z" fill="#36334A"/>
<path d="M1102.46 523.343C1102.93 523.343 1103.4 523.436 1103.83 523.616C1104.27 523.797 1104.67 524.061 1105 524.394C1105.33 524.727 1105.59 525.122 1105.78 525.557C1105.96 525.992 1106.05 526.458 1106.05 526.929V535.125C1106.05 536.755 1105.4 538.319 1104.25 539.472C1103.1 540.624 1101.53 541.272 1099.9 541.272C1098.95 541.272 1098.04 540.894 1097.37 540.222C1096.69 539.549 1096.32 538.637 1096.32 537.686V529.49C1096.32 527.86 1096.96 526.297 1098.12 525.144C1099.27 523.991 1100.83 523.343 1102.46 523.343V523.343Z" fill="#36334A"/>
<path d="M1102.46 588.916C1100.83 588.916 1099.27 588.269 1098.12 587.116C1096.96 585.963 1096.32 584.4 1096.32 582.769V577.135C1096.32 575.504 1096.96 573.941 1098.12 572.788C1099.27 571.635 1100.83 570.988 1102.46 570.988V570.988C1105.84 570.988 1105.54 573.754 1105.54 577.135V582.769C1105.53 586.15 1105.85 588.916 1102.46 588.916Z" fill="#36334A"/>
<path d="M1087.1 546.907C1088.73 546.907 1090.29 547.554 1091.44 548.707C1092.6 549.86 1093.24 551.423 1093.24 553.054V560.737C1093.24 561.824 1092.81 562.867 1092.04 563.635C1091.27 564.404 1090.23 564.835 1089.15 564.835C1087.52 564.835 1085.95 564.188 1084.8 563.035C1083.65 561.882 1083 560.319 1083 558.688V551.005C1083 549.918 1083.43 548.876 1084.2 548.107C1084.97 547.338 1086.01 546.907 1087.1 546.907Z" fill="#36334A"/>
<path d="M1122.18 553.571C1122.18 554.452 1122.18 555.333 1122.13 556.204C1122 559.594 1121.59 562.967 1120.91 566.29C1120.57 566.347 1120.23 566.376 1119.88 566.377C1118.25 566.377 1116.69 565.73 1115.54 564.577C1114.38 563.424 1113.74 561.861 1113.74 560.23V554.596C1113.74 552.965 1114.38 551.402 1115.54 550.249C1116.69 549.096 1118.25 548.449 1119.88 548.449C1120.42 548.447 1120.95 548.518 1121.47 548.659C1121.65 548.71 1121.84 548.766 1122.01 548.833C1122.13 550.39 1122.18 551.973 1122.18 553.571Z" fill="#36334A"/>
<path d="M917.046 564.835H916.021C912.627 564.835 909.875 567.588 909.875 570.982V576.617C909.875 580.012 912.627 582.764 916.021 582.764H917.046C920.44 582.764 923.192 580.012 923.192 576.617V570.982C923.192 567.588 920.44 564.835 917.046 564.835Z" fill="#36334A"/>
<path d="M866.85 564.835H865.826C862.431 564.835 859.679 567.588 859.679 570.982V576.617C859.679 580.012 862.431 582.764 865.826 582.764H866.85C870.245 582.764 872.997 580.012 872.997 576.617V570.982C872.997 567.588 870.245 564.835 866.85 564.835Z" fill="#36334A"/>
<path d="M891.436 591.472H890.412C887.017 591.472 884.265 594.224 884.265 597.619V603.254C884.265 606.649 887.017 609.401 890.412 609.401H891.436C894.831 609.401 897.582 606.649 897.582 603.254V597.619C897.582 594.224 894.831 591.472 891.436 591.472Z" fill="#36334A"/>
<path d="M1069.82 367.528C1069.81 368.505 1069.64 369.474 1069.3 370.392C1068.72 372.022 1067.65 373.435 1066.24 374.442C1064.83 375.449 1063.15 376.002 1061.42 376.026C1059.69 376.051 1057.99 375.546 1056.55 374.579C1055.12 373.612 1054.01 372.23 1053.38 370.617C1052.99 369.638 1052.79 368.596 1052.79 367.543C1052.79 365.288 1053.69 363.125 1055.28 361.531C1056.88 359.936 1059.04 359.04 1061.3 359.04C1063.55 359.04 1065.71 359.936 1067.31 361.531C1068.9 363.125 1069.8 365.288 1069.8 367.543L1069.82 367.528Z" fill="#FF6584"/>
<path d="M1054.52 369.649C1053.98 368.672 1053.63 367.599 1053.51 366.489C1053.38 365.38 1053.47 364.256 1053.78 363.183C1054.09 362.109 1054.6 361.107 1055.3 360.232C1055.99 359.358 1056.85 358.629 1057.83 358.087C1058.78 357.55 1059.82 357.202 1060.9 357.063C1059.73 357.021 1058.56 357.222 1057.47 357.654C1056.38 358.085 1055.39 358.737 1054.57 359.569C1053.74 360.4 1053.1 361.394 1052.67 362.487C1052.25 363.58 1052.06 364.749 1052.11 365.92C1052.16 367.092 1052.45 368.24 1052.96 369.294C1053.48 370.347 1054.2 371.282 1055.1 372.041C1055.99 372.8 1057.03 373.366 1058.15 373.704C1059.28 374.042 1060.46 374.143 1061.62 374.003C1060.16 373.947 1058.74 373.518 1057.5 372.755C1056.26 371.993 1055.23 370.923 1054.52 369.649V369.649Z" fill="#FF6584"/>
<path d="M1073.46 379.371H1050.68V414.906H1073.46V379.371Z" fill="#FF6584"/>
<path opacity="0.1" d="M1073.97 378.347H1051.2V413.881H1073.97V378.347Z" fill="black"/>
<path d="M1014.68 508.294C1014.68 508.294 1012.25 514.953 1006.49 515.885C1000.72 516.817 997.39 518.303 997.39 518.303L1011.06 527.108L1018.34 526.197C1018.34 526.197 1019.25 516.782 1022.29 514.656C1025.33 512.53 1014.68 508.294 1014.68 508.294Z" fill="#FBBEBE"/>
<path d="M1113.39 508.294C1113.39 508.294 1115.82 514.953 1121.59 515.885C1127.36 516.817 1130.7 518.318 1130.7 518.318L1117.03 527.124L1109.74 526.212C1109.74 526.212 1108.83 516.797 1105.8 514.671C1102.76 512.545 1113.39 508.294 1113.39 508.294Z" fill="#FBBEBE"/>
<path d="M1046.89 449.375C1046.89 449.375 1043.24 451.199 1042.03 454.841C1042.03 454.841 1035.37 456.966 1031.7 462.74C1031.7 462.74 1027.15 467.596 1026.54 470.029C1025.93 472.462 1018.95 487.056 1018.95 487.056C1018.95 487.056 1011.97 509.83 1008.32 512.264C1008.32 512.264 1019.86 509.83 1021.99 521.371C1021.99 521.371 1024.72 521.371 1027.76 510.742C1030.8 500.113 1038.08 487.056 1038.08 487.056C1038.08 487.056 1040.51 477.943 1042.64 476.427C1044.76 474.911 1048.1 467.923 1051.14 469.742C1054.18 471.56 1074.22 469.44 1074.22 469.44C1074.22 469.44 1086.06 474.905 1086.36 478.553C1086.67 482.2 1088.8 482.497 1089.1 485.535C1089.4 488.572 1100.64 512.566 1100.64 512.566C1100.64 512.566 1102.76 519.225 1103.37 520.762C1103.37 520.762 1110.05 504.667 1118.86 513.775C1118.86 513.775 1118.56 507.699 1115.82 504.042C1113.09 500.385 1101.24 471.847 1101.24 471.847C1101.24 471.847 1100.03 467.596 1098.82 466.382C1097.6 465.168 1088.19 455.45 1084.85 455.45C1084.85 455.45 1083.03 450.891 1080.9 450.287L1046.89 449.375Z" fill="#696880"/>
<path d="M1019.56 524.086C1017.18 525.039 1014.61 525.36 1012.07 525.019C1009.54 524.678 1007.13 523.686 1005.1 522.14C1003.12 520.621 1000.95 519.366 998.65 518.405C995.433 517.104 991.576 516.136 990.403 518.318C988.278 522.263 1016.22 531.985 1016.22 531.985C1016.22 531.985 1019.86 529.854 1019.56 524.086Z" fill="#696880"/>
<path d="M1108.53 524.086C1110.91 525.039 1113.48 525.36 1116.02 525.019C1118.55 524.678 1120.96 523.686 1122.99 522.14C1124.97 520.621 1127.14 519.366 1129.44 518.405C1132.66 517.104 1136.51 516.136 1137.69 518.318C1139.81 522.263 1111.87 531.985 1111.87 531.985C1111.87 531.985 1108.23 529.854 1108.53 524.086Z" fill="#696880"/>
<path d="M1056.82 399.421C1056.7 400.476 1056.35 401.618 1055.45 402.182C1054.72 402.643 1053.78 402.602 1052.93 402.781C1052.04 403.003 1051.21 403.431 1050.51 404.033C1049.82 404.635 1049.27 405.392 1048.92 406.244C1048.24 407.963 1048.11 409.85 1048.54 411.648C1048.74 412.53 1049 413.398 1049.32 414.245C1050.21 416.765 1051.29 419.26 1052.95 421.36C1054.37 423.024 1055.97 424.529 1057.71 425.847C1058.79 426.728 1059.91 427.63 1061.24 428.045C1062.14 428.284 1063.08 428.406 1064.01 428.409C1065.16 428.465 1066.39 428.501 1067.39 427.927C1068.92 427.041 1069.38 425.079 1070.21 423.512C1070.93 422.175 1071.98 421.048 1072.64 419.685C1073.11 418.616 1073.45 417.497 1073.67 416.35L1075.09 410.045C1075.6 407.76 1076.07 405.178 1074.78 403.216C1074.69 403.054 1074.56 402.919 1074.4 402.822C1074.15 402.723 1073.89 402.694 1073.63 402.74C1071.99 402.85 1070.36 402.477 1068.94 401.669C1068.71 401.557 1068.51 401.4 1068.35 401.208C1068.14 400.884 1068.02 400.512 1067.99 400.127C1067.85 399.345 1067.63 398.58 1067.33 397.843C1067.25 397.58 1067.09 397.344 1066.89 397.162C1066.67 397.025 1066.42 396.942 1066.17 396.921C1063.98 396.563 1061.76 396.331 1059.55 396.224C1058.81 396.193 1057.72 395.901 1057.22 396.542C1056.72 397.182 1056.9 398.652 1056.82 399.421Z" fill="#FBBEBE"/>
<path opacity="0.1" d="M1056.82 399.421C1056.7 400.476 1056.35 401.618 1055.45 402.182C1054.72 402.643 1053.78 402.602 1052.93 402.781C1052.04 403.003 1051.21 403.431 1050.51 404.033C1049.82 404.635 1049.27 405.392 1048.92 406.244C1048.24 407.963 1048.11 409.85 1048.54 411.648C1048.74 412.53 1049 413.398 1049.32 414.245C1050.21 416.765 1051.29 419.26 1052.95 421.36C1054.37 423.024 1055.97 424.529 1057.71 425.847C1058.79 426.728 1059.91 427.63 1061.24 428.045C1062.14 428.284 1063.08 428.406 1064.01 428.409C1065.16 428.465 1066.39 428.501 1067.39 427.927C1068.92 427.041 1069.38 425.079 1070.21 423.512C1070.93 422.175 1071.98 421.048 1072.64 419.685C1073.11 418.616 1073.45 417.497 1073.67 416.35L1075.09 410.045C1075.6 407.76 1076.07 405.178 1074.78 403.216C1074.69 403.054 1074.56 402.919 1074.4 402.822C1074.15 402.723 1073.89 402.694 1073.63 402.74C1071.99 402.85 1070.36 402.477 1068.94 401.669C1068.71 401.557 1068.51 401.4 1068.35 401.208C1068.14 400.884 1068.02 400.512 1067.99 400.127C1067.85 399.345 1067.63 398.58 1067.33 397.843C1067.25 397.58 1067.09 397.344 1066.89 397.162C1066.67 397.025 1066.42 396.942 1066.17 396.921C1063.98 396.563 1061.76 396.331 1059.55 396.224C1058.81 396.193 1057.72 395.901 1057.22 396.542C1056.72 397.182 1056.9 398.652 1056.82 399.421Z" fill="black"/>
<path d="M1052.7 403.047C1051.51 402.694 1050.28 402.499 1049.05 402.468C1046.12 402.397 1042.99 403.411 1041.29 405.803C1040.14 407.528 1039.72 409.635 1040.12 411.668C1040.53 413.687 1041.44 415.567 1042.78 417.134C1043.55 417.956 1044.24 418.856 1044.83 419.818C1045.64 421.355 1045.66 423.189 1045.85 424.941C1046.37 429.095 1048.14 433.009 1048.85 437.137C1049.55 441.266 1048.94 446.061 1045.67 448.694C1045.13 449.134 1044.47 449.595 1044.42 450.297C1044.34 451.419 1045.8 451.9 1046.92 452.003C1050.28 452.325 1053.72 452.638 1056.98 451.772C1058.33 451.414 1059.63 450.855 1061 450.599C1064.49 449.949 1067.99 451.28 1071.47 451.926C1074 452.34 1076.55 452.547 1079.11 452.546C1079.71 452.599 1080.31 452.52 1080.87 452.315C1081.15 452.206 1081.39 452.011 1081.55 451.759C1081.71 451.507 1081.78 451.21 1081.76 450.912C1081.65 450.524 1081.45 450.172 1081.16 449.887C1079.4 447.705 1078.86 444.816 1078.38 442.055L1076.79 432.758C1075.93 427.799 1075.12 422.415 1077.47 417.959C1079.16 414.757 1082.26 412.503 1084.04 409.353C1084.67 408.399 1084.96 407.259 1084.85 406.121C1084.59 404.538 1083.16 403.406 1081.69 402.74C1078.88 401.481 1075.68 401.365 1072.79 402.417C1072.84 404.635 1072.27 406.879 1071.9 409.076L1071.28 412.662C1070.97 414.775 1070.51 416.863 1069.9 418.912C1069.68 419.729 1069.3 420.497 1068.79 421.176C1068.24 421.784 1067.58 422.271 1066.83 422.605C1065.21 423.396 1063.43 423.801 1061.63 423.788C1060.85 423.804 1060.07 423.686 1059.34 423.44C1058.12 422.999 1057.13 422.093 1056.17 421.212C1055.86 420.945 1055.58 420.643 1055.34 420.31C1055.09 419.882 1054.9 419.422 1054.77 418.942C1054.36 417.69 1054.03 416.409 1053.8 415.111C1053.64 414.117 1053.59 413.108 1053.52 412.104C1053.3 409.194 1053.3 405.9 1052.7 403.047Z" fill="#F2F2F2"/>
<path d="M1049.62 461.828C1049.62 461.828 1048.4 477.922 1056 480.658C1063.59 483.393 1056.91 467.293 1056.91 467.293L1054.48 462.432L1049.62 461.828Z" fill="#FBBEBE"/>
<path d="M1075.43 461.828C1075.43 461.828 1076.65 477.922 1069.06 480.658C1061.47 483.393 1068.15 467.293 1068.15 467.293L1070.57 462.432L1075.43 461.828Z" fill="#FBBEBE"/>
<path opacity="0.1" d="M1042.94 408.072L1040.51 412.022C1040.51 412.022 1042.64 425.689 1042.94 428.117C1043.2 429.865 1043.61 431.589 1044.15 433.27C1044.15 433.27 1044.46 440.559 1044.46 443.289C1044.46 446.02 1045.99 450.579 1045.99 450.579C1046.21 453.161 1046.72 455.709 1047.53 458.17C1048.74 461.515 1049.96 465.46 1049.96 465.46C1049.96 465.46 1051.5 461.208 1057.55 467.585C1058.23 466.897 1058.61 465.969 1058.61 465.004C1058.61 464.038 1058.23 463.111 1057.55 462.422C1057.55 462.422 1055.73 454.226 1055.73 449.974C1055.73 445.723 1052.39 425.386 1052.39 425.386C1052.39 425.386 1050.23 402.299 1042.94 408.072Z" fill="black"/>
<path d="M1042.34 407.77L1039.91 411.715C1039.91 411.715 1042.04 425.381 1042.34 427.814C1042.6 429.565 1043.01 431.29 1043.56 432.973C1043.56 432.973 1043.88 440.262 1043.88 443.003C1043.88 445.743 1045.41 450.292 1045.41 450.292C1045.63 452.874 1046.14 455.421 1046.95 457.883C1048.16 461.223 1049.38 465.173 1049.38 465.173C1049.38 465.173 1050.91 460.921 1056.97 467.298C1057.65 466.61 1058.03 465.683 1058.03 464.717C1058.03 463.751 1057.65 462.823 1056.97 462.135C1056.97 462.135 1055.15 453.939 1055.15 449.682C1055.15 445.426 1051.81 425.094 1051.81 425.094C1051.81 425.094 1049.62 402.023 1042.34 407.77Z" fill="#F2F2F2"/>
<path opacity="0.1" d="M1082.42 405.639L1083.95 407.447C1083.95 407.447 1085.74 417.79 1081.8 430.847L1080.58 442.695C1080.58 442.695 1078.46 452.715 1078.15 455.148C1077.84 457.581 1077.85 457.878 1077.24 458.79C1077.06 459.003 1076.95 459.276 1076.95 459.558C1076.95 459.841 1077.06 460.114 1077.24 460.327L1075.42 467.012C1075.42 467.012 1072.68 463.672 1067.22 467.923C1067.22 467.923 1065.69 465.49 1066.92 463.364C1068.16 461.239 1068.14 460.327 1067.83 459.722C1067.53 459.118 1069.05 456.075 1069.05 455.471C1069.05 454.866 1071.17 440.892 1071.17 440.892C1071.17 440.892 1072.08 427.225 1073 422.671C1073.55 419.869 1073.54 413.62 1073.45 409.225C1073.35 404.651 1078.89 402.166 1082.15 405.388C1082.24 405.455 1082.33 405.547 1082.42 405.639Z" fill="black"/>
<path d="M1083.32 405.035L1084.85 406.843C1084.85 406.843 1086.64 417.18 1082.7 430.242L1081.48 442.086C1081.48 442.086 1079.36 452.11 1079.05 454.538C1078.74 456.966 1078.75 457.274 1078.14 458.18C1077.96 458.395 1077.85 458.667 1077.85 458.949C1077.85 459.231 1077.96 459.503 1078.14 459.717L1076.32 466.376C1076.32 466.376 1073.58 463.037 1068.12 467.288C1068.12 467.288 1066.59 464.86 1067.82 462.734C1069.06 460.608 1069.04 459.697 1068.73 459.087C1068.42 458.478 1069.95 455.445 1069.95 454.835C1069.95 454.226 1072.07 440.257 1072.07 440.257C1072.07 440.257 1072.99 426.59 1073.89 422.036C1074.8 417.482 1074.2 403.816 1074.2 403.816C1074.2 403.816 1079.08 400.486 1083.32 405.035Z" fill="#F2F2F2"/>
<path d="M1062.98 400.783C1069.69 400.783 1075.13 395.343 1075.13 388.633C1075.13 381.922 1069.69 376.482 1062.98 376.482C1056.27 376.482 1050.83 381.922 1050.83 388.633C1050.83 395.343 1056.27 400.783 1062.98 400.783Z" fill="#FBBEBE"/>
<path opacity="0.1" d="M1069.32 370.391C1068.73 372.022 1067.67 373.435 1066.26 374.442C1064.85 375.449 1063.17 376.002 1061.43 376.026C1059.7 376.051 1058 375.546 1056.57 374.579C1055.13 373.612 1054.02 372.23 1053.39 370.617C1058.13 368.711 1062.98 370.412 1062.98 370.412C1065.39 369.557 1067.5 369.638 1069.32 370.391Z" fill="black"/>
<path d="M1062.98 371.022C1062.98 371.022 1039.6 362.826 1045.37 402.607C1045.37 402.607 1050.53 405.947 1054.48 403.821C1054.48 403.821 1051.74 376.159 1062.37 377.399C1073 378.639 1071.18 403.211 1071.18 403.211C1071.18 403.211 1077.26 405.035 1079.08 401.675C1080.89 398.314 1078.47 365.551 1062.98 371.022Z" fill="#FF6584"/>
<path opacity="0.1" d="M1062.37 375.575C1055.08 374.74 1054.08 387.49 1054.18 395.579C1054.27 387.542 1055.62 376.626 1062.37 377.399C1069.96 378.265 1071.2 391.05 1071.3 398.294C1071.38 391.65 1070.65 376.523 1062.37 375.575Z" fill="black"/>
<path opacity="0.1" d="M1045.37 400.783C1044.84 397.292 1044.54 393.771 1044.46 390.241C1044.44 394.374 1044.74 398.502 1045.37 402.586C1045.37 402.586 1050.53 405.926 1054.48 403.8C1054.48 403.8 1054.41 403.145 1054.34 402.043C1050.41 404.072 1045.37 400.783 1045.37 400.783Z" fill="black"/>
<path opacity="0.1" d="M1079.08 399.871C1077.38 402.981 1072 401.618 1071.26 401.408C1071.23 402.535 1071.18 403.206 1071.18 403.206C1071.18 403.206 1077.26 405.03 1079.08 401.669C1079.45 400.978 1079.65 399.036 1079.59 396.439C1079.54 398.135 1079.36 399.354 1079.08 399.871Z" fill="black"/>
<path d="M1141.34 596.441C1142.75 593.844 1141.15 590.658 1139.33 588.342C1137.5 586.027 1135.26 583.614 1135.31 580.659C1135.38 576.417 1139.88 573.912 1143.51 571.664C1146.18 569.993 1148.64 568.012 1150.85 565.763C1151.77 564.896 1152.53 563.875 1153.1 562.745C1153.84 561.086 1153.82 559.196 1153.78 557.377C1153.62 551.322 1153.32 545.273 1152.88 539.228" stroke="#3F3D56" stroke-width="4" stroke-miterlimit="10"/>
<path d="M1159.69 538.9C1159.64 537.791 1159.31 536.713 1158.73 535.765C1158.16 534.817 1157.35 534.03 1156.39 533.476L1154.91 536.406L1154.95 532.856C1154.25 532.649 1153.51 532.561 1152.77 532.595C1151.46 532.656 1150.2 533.103 1149.15 533.88C1148.1 534.657 1147.3 535.729 1146.86 536.96C1146.41 538.192 1146.34 539.527 1146.66 540.797C1146.97 542.068 1147.66 543.216 1148.62 544.098C1149.59 544.979 1150.8 545.554 1152.09 545.75C1153.39 545.945 1154.71 545.753 1155.89 545.196C1157.08 544.64 1158.07 543.745 1158.75 542.624C1159.42 541.504 1159.75 540.208 1159.69 538.9Z" fill="#6C63FF"/>
<path d="M1147.89 583.696C1147.22 584.991 1146.15 586.03 1144.83 586.651C1143.51 587.272 1142.03 587.441 1140.6 587.132C1139.18 586.823 1137.9 586.052 1136.96 584.94C1136.01 583.828 1135.47 582.437 1135.4 580.981C1135.35 580.065 1135.5 579.148 1135.83 578.292C1136.31 577.038 1137.16 575.961 1138.28 575.204C1139.39 574.446 1140.7 574.045 1142.04 574.053C1143.39 574.061 1144.7 574.477 1145.8 575.247C1146.9 576.017 1147.74 577.104 1148.21 578.364L1144.08 581.729L1148.62 580.674C1148.62 581.726 1148.37 582.762 1147.89 583.696V583.696Z" fill="#6C63FF"/>
<path d="M1144.62 570.844C1143.75 570.885 1142.89 570.754 1142.07 570.459C1141.25 570.164 1140.5 569.711 1139.86 569.125C1139.21 568.539 1138.69 567.833 1138.32 567.046C1137.95 566.259 1137.74 565.407 1137.7 564.538C1137.65 563.503 1137.85 562.471 1138.28 561.526C1138.67 560.643 1139.26 559.857 1139.99 559.223C1140.73 558.59 1141.59 558.124 1142.52 557.859L1142.49 560.589L1143.99 557.618C1145.74 557.537 1147.45 558.156 1148.75 559.339C1150.05 560.521 1150.82 562.17 1150.9 563.924C1150.94 564.687 1150.85 565.452 1150.62 566.183C1150.22 567.481 1149.43 568.626 1148.36 569.46C1147.28 570.294 1145.98 570.777 1144.62 570.844V570.844Z" fill="#6C63FF"/>
<path d="M1160.69 560.154C1159.82 560.194 1158.95 560.063 1158.14 559.768C1157.32 559.473 1156.57 559.02 1155.92 558.435C1155.28 557.849 1154.76 557.142 1154.39 556.355C1154.02 555.568 1153.81 554.716 1153.77 553.848C1153.71 552.767 1153.93 551.69 1154.39 550.713C1154.78 549.891 1155.33 549.159 1156.02 548.56C1156.7 547.961 1157.5 547.51 1158.36 547.234C1159.23 546.957 1160.14 546.862 1161.04 546.954C1161.95 547.046 1162.82 547.323 1163.61 547.767L1162.45 550.969L1164.85 548.659C1166.14 549.839 1166.91 551.482 1166.99 553.228C1167.02 553.841 1166.96 554.455 1166.82 555.052C1166.49 556.453 1165.72 557.709 1164.61 558.63C1163.5 559.551 1162.13 560.086 1160.69 560.154V560.154Z" fill="#6C63FF"/>
<path opacity="0.1" d="M1158.8 540.662C1157.27 540.832 1155.79 541.303 1154.26 541.4C1152.72 541.497 1151.04 541.129 1150.07 539.935C1149.62 539.243 1149.21 538.525 1148.85 537.784C1148.43 537.132 1147.86 536.592 1147.18 536.211C1146.66 537.231 1146.41 538.37 1146.47 539.515C1146.54 541.122 1147.2 542.648 1148.31 543.808C1149.43 544.967 1150.93 545.68 1152.53 545.814C1154.14 545.948 1155.73 545.493 1157.02 544.534C1158.32 543.576 1159.22 542.179 1159.55 540.606C1159.3 540.616 1159.05 540.637 1158.8 540.662Z" fill="black"/>
<path opacity="0.1" d="M1160.69 560.154C1159.82 560.194 1158.95 560.063 1158.14 559.768C1157.32 559.473 1156.57 559.02 1155.92 558.435C1155.28 557.849 1154.76 557.142 1154.39 556.355C1154.02 555.568 1153.81 554.716 1153.77 553.848C1153.71 552.767 1153.93 551.69 1154.39 550.713C1154.92 551.067 1155.37 551.519 1155.73 552.045C1156.2 552.757 1156.48 553.581 1157.04 554.232C1158.06 555.441 1159.83 555.84 1161.43 555.769C1163.03 555.697 1164.56 555.256 1166.15 555.098C1166.38 555.098 1166.6 555.062 1166.82 555.057C1166.49 556.457 1165.72 557.712 1164.61 558.632C1163.5 559.552 1162.13 560.086 1160.69 560.154V560.154Z" fill="black"/>
<path opacity="0.1" d="M1144.62 570.844C1143.75 570.885 1142.89 570.754 1142.07 570.459C1141.25 570.164 1140.5 569.711 1139.86 569.125C1139.21 568.54 1138.69 567.833 1138.32 567.046C1137.95 566.259 1137.74 565.407 1137.7 564.538C1137.65 563.503 1137.85 562.471 1138.28 561.526C1138.81 561.888 1139.28 562.343 1139.66 562.868C1140.17 563.596 1140.49 564.405 1141.09 565.102C1142.21 566.347 1144.09 566.782 1145.78 566.746C1147.47 566.71 1149 566.306 1150.62 566.183C1150.22 567.482 1149.43 568.627 1148.36 569.461C1147.29 570.295 1145.98 570.778 1144.62 570.844V570.844Z" fill="black"/>
<path opacity="0.1" d="M1147.89 583.696C1147.22 584.991 1146.15 586.03 1144.83 586.651C1143.51 587.272 1142.03 587.441 1140.6 587.132C1139.18 586.823 1137.9 586.052 1136.96 584.94C1136.01 583.828 1135.47 582.437 1135.4 580.981C1135.35 580.065 1135.5 579.148 1135.83 578.292C1136.37 578.651 1136.86 579.088 1137.28 579.588C1137.91 580.356 1138.3 581.227 1139.05 581.939C1140.4 583.271 1142.59 583.819 1144.53 583.871C1145.65 583.877 1146.77 583.819 1147.89 583.696V583.696Z" fill="black"/>
<path d="M1131.37 593.45C1131.37 593.45 1136.59 593.291 1138.16 592.169C1139.74 591.047 1146.19 589.71 1146.59 591.508C1146.98 593.306 1154.44 600.452 1148.54 600.498C1142.64 600.544 1134.84 599.581 1133.27 598.623C1131.69 597.665 1131.37 593.45 1131.37 593.45Z" fill="#656380"/>
<path opacity="0.2" d="M1148.64 599.873C1142.75 599.919 1134.94 598.951 1133.37 597.998C1132.18 597.266 1131.7 594.653 1131.54 593.444H1131.37C1131.37 593.444 1131.69 597.66 1133.27 598.618C1134.84 599.576 1142.64 600.539 1148.54 600.493C1150.24 600.493 1150.83 599.873 1150.8 598.956C1150.56 599.525 1149.9 599.863 1148.64 599.873Z" fill="black"/>
</g>
<defs>
<clipPath id="clip0">
<rect width="530" height="362" fill="white" transform="translate(637 262)"/>
</clipPath>
</defs>
</svg>
